<svg width="409" height="494" viewBox="0 0 409 494" fill="none" xmlns="http://www.w3.org/2000/svg">
<path d="M330.7 343H161.18C155.614 343 152.831 343 150.264 343.45C143.233 344.681 136.871 348.379 132.321 353.879C130.66 355.888 129.283 358.306 126.528 363.142L111.084 390.259C108.724 394.403 107.544 396.474 106.957 397.355C91.087 421.146 54.091 411.349 52.0747 382.822C52 381.766 52 379.382 52 374.614V365C52 352.85 42.1503 343 30 343C17.8497 343 8 333.15 8 321V75.3C8 58.2153 8 49.6729 11.3776 43.1708C14.2239 37.6915 18.6915 33.2239 24.1708 30.3776C30.6729 27 39.2153 27 56.3 27H330.7C347.785 27 356.327 27 362.829 30.3776C368.309 33.2239 372.776 37.6915 375.622 43.1708C379 49.6729 379 58.2153 379 75.3V294.7C379 311.785 379 320.327 375.622 326.829C372.776 332.309 368.309 336.776 362.829 339.622C356.327 343 347.785 343 330.7 343Z" fill="black" stroke="black"/>
<path d="M349.047 349H138C131.5 349 52 469 52 435.5V349H38C21.4315 349 8 335.569 8 319V63C8 46.4315 21.4315 33 38 33H349C365.569 33 379 46.4315 379 63V319C379 335.569 365.616 349 349.047 349Z" fill="black"/>
<path d="M52 349H59.5C59.5 344.858 56.1421 341.5 52 341.5V349ZM138 356.5H349.047V341.5H138V356.5ZM386.5 319V63H371.5V319H386.5ZM349 25.5H38V40.5H349V25.5ZM0.5 63V319H15.5V63H0.5ZM38 356.5H52V341.5H38V356.5ZM44.5 349V435.5H59.5V349H44.5ZM44.5 435.5C44.5 438.07 44.8334 441.225 46.4841 443.943C47.3849 445.426 48.697 446.802 50.4841 447.74C52.2554 448.67 54.0777 448.952 55.6865 448.897C58.6515 448.795 61.2862 447.542 63.1948 446.414C65.2565 445.196 67.3617 443.58 69.4318 441.788C77.5767 434.738 88.1139 422.356 98.4149 409.503C108.789 396.559 119.477 382.424 127.734 371.839C131.915 366.479 135.446 362.062 138.098 359.012C139.442 357.467 140.42 356.434 141.062 355.84C141.395 355.531 141.466 355.501 141.325 355.595C141.25 355.645 140.982 355.818 140.554 355.999C140.177 356.158 139.262 356.5 138 356.5V341.5C135.412 341.5 133.524 342.77 133.038 343.092C132.215 343.637 131.47 344.278 130.864 344.839C129.627 345.986 128.231 347.499 126.779 349.17C123.839 352.551 120.092 357.248 115.907 362.614C107.429 373.482 97.0237 387.253 86.7101 400.122C76.3236 413.082 66.5796 424.418 59.615 430.446C57.9078 431.924 56.559 432.912 55.5643 433.5C54.4165 434.178 54.3924 433.933 55.1709 433.906C55.6865 433.888 56.5335 433.975 57.457 434.459C58.3962 434.953 58.9878 435.634 59.3047 436.156C59.7877 436.951 59.5 437.118 59.5 435.5H44.5ZM0.5 319C0.5 339.711 17.2893 356.5 38 356.5V341.5C25.5736 341.5 15.5 331.426 15.5 319H0.5ZM38 25.5C17.2893 25.5 0.5 42.2893 0.5 63H15.5C15.5 50.5736 25.5736 40.5 38 40.5V25.5ZM386.5 63C386.5 42.2893 369.711 25.5 349 25.5V40.5C361.426 40.5 371.5 50.5736 371.5 63H386.5ZM349.047 356.5C369.773 356.5 386.5 339.695 386.5 319H371.5C371.5 331.442 361.458 341.5 349.047 341.5V356.5Z" fill="black"/>
<path d="M74 324H81.5C81.5 319.858 78.1421 316.5 74 316.5V324ZM160 331.5C160.01 331.5 160.02 331.5 160.031 331.5C160.042 331.5 160.053 331.5 160.065 331.5C160.077 331.5 160.09 331.5 160.103 331.5C160.116 331.5 160.129 331.5 160.143 331.5C160.157 331.5 160.172 331.5 160.187 331.5C160.202 331.5 160.218 331.5 160.234 331.5C160.25 331.5 160.266 331.5 160.284 331.5C160.301 331.5 160.318 331.5 160.337 331.5C160.355 331.5 160.373 331.5 160.392 331.5C160.412 331.5 160.431 331.5 160.452 331.5C160.472 331.5 160.492 331.5 160.514 331.5C160.535 331.5 160.557 331.5 160.579 331.5C160.601 331.5 160.624 331.5 160.647 331.5C160.67 331.5 160.694 331.5 160.718 331.5C160.742 331.5 160.767 331.5 160.792 331.5C160.818 331.5 160.843 331.5 160.869 331.5C160.896 331.5 160.922 331.5 160.95 331.5C160.977 331.5 161.005 331.5 161.033 331.5C161.061 331.5 161.09 331.5 161.119 331.5C161.148 331.5 161.178 331.5 161.208 331.5C161.238 331.5 161.269 331.5 161.3 331.5C161.331 331.5 161.363 331.5 161.395 331.5C161.427 331.5 161.46 331.5 161.493 331.5C161.526 331.5 161.56 331.5 161.594 331.5C161.628 331.5 161.663 331.5 161.698 331.5C161.733 331.5 161.768 331.5 161.804 331.5C161.84 331.5 161.877 331.5 161.914 331.5C161.951 331.5 161.989 331.5 162.027 331.5C162.064 331.5 162.103 331.5 162.142 331.5C162.181 331.5 162.22 331.5 162.26 331.5C162.3 331.5 162.34 331.5 162.381 331.5C162.422 331.5 162.463 331.5 162.505 331.5C162.547 331.5 162.589 331.5 162.632 331.5C162.675 331.5 162.718 331.5 162.761 331.5C162.805 331.5 162.849 331.5 162.894 331.5C162.938 331.5 162.983 331.5 163.029 331.5C163.075 331.5 163.121 331.5 163.167 331.5C163.213 331.5 163.26 331.5 163.308 331.5C163.355 331.5 163.403 331.5 163.451 331.5C163.5 331.5 163.548 331.5 163.598 331.5C163.647 331.5 163.697 331.5 163.747 331.5C163.797 331.5 163.848 331.5 163.899 331.5C163.95 331.5 164.001 331.5 164.053 331.5C164.105 331.5 164.158 331.5 164.211 331.5C164.263 331.5 164.317 331.5 164.371 331.5C164.424 331.5 164.479 331.5 164.533 331.5C164.588 331.5 164.643 331.5 164.699 331.5C164.754 331.5 164.81 331.5 164.867 331.5C164.923 331.5 164.98 331.5 165.038 331.5C165.095 331.5 165.153 331.5 165.211 331.5C165.27 331.5 165.328 331.5 165.387 331.5C165.447 331.5 165.506 331.5 165.566 331.5C165.626 331.5 165.687 331.5 165.748 331.5C165.809 331.5 165.87 331.5 165.932 331.5C165.994 331.5 166.056 331.5 166.119 331.5C166.181 331.5 166.244 331.5 166.308 331.5C166.371 331.5 166.435 331.5 166.5 331.5C166.564 331.5 166.629 331.5 166.694 331.5C166.76 331.5 166.825 331.5 166.892 331.5C166.958 331.5 167.024 331.5 167.091 331.5C167.158 331.5 167.226 331.5 167.294 331.5C167.361 331.5 167.43 331.5 167.498 331.5C167.567 331.5 167.636 331.5 167.706 331.5C167.775 331.5 167.845 331.5 167.916 331.5C167.986 331.5 168.057 331.5 168.128 331.5C168.199 331.5 168.271 331.5 168.343 331.5C168.415 331.5 168.488 331.5 168.561 331.5C168.633 331.5 168.707 331.5 168.78 331.5C168.854 331.5 168.928 331.5 169.003 331.5C169.077 331.5 169.152 331.5 169.228 331.5C169.303 331.5 169.379 331.5 169.455 331.5C169.531 331.5 169.608 331.5 169.685 331.5C169.762 331.5 169.84 331.5 169.917 331.5C169.995 331.5 170.074 331.5 170.152 331.5C170.231 331.5 170.31 331.5 170.389 331.5C170.469 331.5 170.549 331.5 170.629 331.5C170.709 331.5 170.79 331.5 170.871 331.5C170.952 331.5 171.033 331.5 171.115 331.5C171.197 331.5 171.28 331.5 171.362 331.5C171.445 331.5 171.528 331.5 171.611 331.5C171.695 331.5 171.779 331.5 171.863 331.5C171.947 331.5 172.032 331.5 172.117 331.5C172.202 331.5 172.287 331.5 172.373 331.5C172.459 331.5 172.545 331.5 172.632 331.5C172.718 331.5 172.805 331.5 172.893 331.5C172.98 331.5 173.068 331.5 173.156 331.5C173.244 331.5 173.333 331.5 173.422 331.5C173.51 331.5 173.6 331.5 173.689 331.5C173.779 331.5 173.869 331.5 173.96 331.5C174.05 331.5 174.141 331.5 174.232 331.5C174.323 331.5 174.415 331.5 174.507 331.5C174.599 331.5 174.691 331.5 174.784 331.5C174.877 331.5 174.97 331.5 175.063 331.5C175.157 331.5 175.251 331.5 175.345 331.5C175.439 331.5 175.534 331.5 175.628 331.5C175.723 331.5 175.819 331.5 175.914 331.5C176.01 331.5 176.106 331.5 176.203 331.5C176.299 331.5 176.396 331.5 176.493 331.5C176.59 331.5 176.688 331.5 176.786 331.5C176.884 331.5 176.982 331.5 177.081 331.5C177.179 331.5 177.278 331.5 177.377 331.5C177.477 331.5 177.577 331.5 177.677 331.5C177.777 331.5 177.877 331.5 177.978 331.5C178.079 331.5 178.18 331.5 178.281 331.5C178.383 331.5 178.485 331.5 178.587 331.5C178.689 331.5 178.792 331.5 178.895 331.5C178.998 331.5 179.101 331.5 179.205 331.5C179.308 331.5 179.412 331.5 179.517 331.5C179.621 331.5 179.726 331.5 179.831 331.5C179.936 331.5 180.041 331.5 180.147 331.5C180.253 331.5 180.359 331.5 180.465 331.5C180.571 331.5 180.678 331.5 180.785 331.5C180.892 331.5 181 331.5 181.108 331.5C181.215 331.5 181.324 331.5 181.432 331.5C181.541 331.5 181.649 331.5 181.759 331.5C181.868 331.5 181.977 331.5 182.087 331.5C182.197 331.5 182.307 331.5 182.418 331.5C182.528 331.5 182.639 331.5 182.75 331.5C182.861 331.5 182.973 331.5 183.085 331.5C183.197 331.5 183.309 331.5 183.421 331.5C183.534 331.5 183.647 331.5 183.76 331.5C183.873 331.5 183.986 331.5 184.1 331.5C184.214 331.5 184.328 331.5 184.443 331.5C184.557 331.5 184.672 331.5 184.787 331.5C184.902 331.5 185.018 331.5 185.134 331.5C185.249 331.5 185.365 331.5 185.482 331.5C185.598 331.5 185.715 331.5 185.832 331.5C185.949 331.5 186.067 331.5 186.184 331.5C186.302 331.5 186.42 331.5 186.538 331.5C186.657 331.5 186.775 331.5 186.894 331.5C187.013 331.5 187.132 331.5 187.252 331.5C187.372 331.5 187.492 331.5 187.612 331.5C187.732 331.5 187.853 331.5 187.973 331.5C188.094 331.5 188.215 331.5 188.337 331.5C188.458 331.5 188.58 331.5 188.702 331.5C188.824 331.5 188.947 331.5 189.069 331.5C189.192 331.5 189.315 331.5 189.438 331.5C189.562 331.5 189.685 331.5 189.809 331.5C189.933 331.5 190.057 331.5 190.182 331.5C190.306 331.5 190.431 331.5 190.556 331.5C190.681 331.5 190.807 331.5 190.932 331.5C191.058 331.5 191.184 331.5 191.31 331.5C191.437 331.5 191.563 331.5 191.69 331.5C191.817 331.5 191.944 331.5 192.072 331.5C192.199 331.5 192.327 331.5 192.455 331.5C192.583 331.5 192.711 331.5 192.84 331.5C192.968 331.5 193.097 331.5 193.227 331.5C193.356 331.5 193.485 331.5 193.615 331.5C193.745 331.5 193.875 331.5 194.005 331.5C194.136 331.5 194.266 331.5 194.397 331.5C194.528 331.5 194.659 331.5 194.791 331.5C194.922 331.5 195.054 331.5 195.186 331.5C195.318 331.5 195.45 331.5 195.583 331.5C195.715 331.5 195.848 331.5 195.981 331.5C196.115 331.5 196.248 331.5 196.382 331.5C196.515 331.5 196.649 331.5 196.784 331.5C196.918 331.5 197.052 331.5 197.187 331.5C197.322 331.5 197.457 331.5 197.592 331.5C197.728 331.5 197.863 331.5 197.999 331.5C198.135 331.5 198.271 331.5 198.408 331.5C198.544 331.5 198.681 331.5 198.818 331.5C198.955 331.5 199.092 331.5 199.229 331.5C199.367 331.5 199.504 331.5 199.642 331.5C199.78 331.5 199.919 331.5 200.057 331.5C200.196 331.5 200.334 331.5 200.473 331.5C200.612 331.5 200.752 331.5 200.891 331.5C201.031 331.5 201.171 331.5 201.311 331.5C201.451 331.5 201.591 331.5 201.731 331.5C201.872 331.5 202.013 331.5 202.154 331.5C202.295 331.5 202.436 331.5 202.578 331.5C202.719 331.5 202.861 331.5 203.003 331.5C203.145 331.5 203.288 331.5 203.43 331.5C203.573 331.5 203.716 331.5 203.859 331.5C204.002 331.5 204.145 331.5 204.289 331.5C204.432 331.5 204.576 331.5 204.72 331.5C204.864 331.5 205.008 331.5 205.153 331.5C205.297 331.5 205.442 331.5 205.587 331.5C205.732 331.5 205.877 331.5 206.023 331.5C206.168 331.5 206.314 331.5 206.46 331.5C206.606 331.5 206.752 331.5 206.898 331.5C207.045 331.5 207.191 331.5 207.338 331.5C207.485 331.5 207.632 331.5 207.779 331.5C207.927 331.5 208.074 331.5 208.222 331.5C208.37 331.5 208.518 331.5 208.666 331.5C208.814 331.5 208.963 331.5 209.112 331.5C209.26 331.5 209.409 331.5 209.558 331.5C209.708 331.5 209.857 331.5 210.007 331.5C210.156 331.5 210.306 331.5 210.456 331.5C210.606 331.5 210.756 331.5 210.907 331.5C211.057 331.5 211.208 331.5 211.359 331.5C211.51 331.5 211.661 331.5 211.812 331.5C211.964 331.5 212.115 331.5 212.267 331.5C212.419 331.5 212.571 331.5 212.723 331.5C212.875 331.5 213.028 331.5 213.181 331.5C213.333 331.5 213.486 331.5 213.639 331.5C213.792 331.5 213.945 331.5 214.099 331.5C214.252 331.5 214.406 331.5 214.56 331.5C214.714 331.5 214.868 331.5 215.022 331.5C215.177 331.5 215.331 331.5 215.486 331.5C215.641 331.5 215.795 331.5 215.951 331.5C216.106 331.5 216.261 331.5 216.417 331.5C216.572 331.5 216.728 331.5 216.884 331.5C217.04 331.5 217.196 331.5 217.352 331.5C217.508 331.5 217.665 331.5 217.822 331.5C217.978 331.5 218.135 331.5 218.292 331.5C218.449 331.5 218.607 331.5 218.764 331.5C218.922 331.5 219.079 331.5 219.237 331.5C219.395 331.5 219.553 331.5 219.711 331.5C219.87 331.5 220.028 331.5 220.187 331.5C220.345 331.5 220.504 331.5 220.663 331.5C220.822 331.5 220.981 331.5 221.141 331.5C221.3 331.5 221.46 331.5 221.619 331.5C221.779 331.5 221.939 331.5 222.099 331.5C222.259 331.5 222.419 331.5 222.58 331.5C222.74 331.5 222.901 331.5 223.062 331.5C223.223 331.5 223.384 331.5 223.545 331.5C223.706 331.5 223.867 331.5 224.029 331.5C224.19 331.5 224.352 331.5 224.514 331.5C224.676 331.5 224.838 331.5 225 331.5C225.162 331.5 225.325 331.5 225.487 331.5C225.65 331.5 225.812 331.5 225.975 331.5C226.138 331.5 226.301 331.5 226.464 331.5C226.628 331.5 226.791 331.5 226.955 331.5C227.118 331.5 227.282 331.5 227.446 331.5C227.61 331.5 227.774 331.5 227.938 331.5C228.102 331.5 228.266 331.5 228.431 331.5C228.596 331.5 228.76 331.5 228.925 331.5C229.09 331.5 229.255 331.5 229.42 331.5C229.585 331.5 229.75 331.5 229.916 331.5C230.081 331.5 230.247 331.5 230.413 331.5C230.579 331.5 230.745 331.5 230.911 331.5C231.077 331.5 231.243 331.5 231.409 331.5C231.576 331.5 231.742 331.5 231.909 331.5C232.076 331.5 232.242 331.5 232.409 331.5C232.576 331.5 232.743 331.5 232.911 331.5C233.078 331.5 233.245 331.5 233.413 331.5C233.581 331.5 233.748 331.5 233.916 331.5C234.084 331.5 234.252 331.5 234.42 331.5C234.588 331.5 234.756 331.5 234.925 331.5C235.093 331.5 235.262 331.5 235.43 331.5C235.599 331.5 235.768 331.5 235.937 331.5C236.106 331.5 236.275 331.5 236.444 331.5C236.613 331.5 236.783 331.5 236.952 331.5C237.122 331.5 237.291 331.5 237.461 331.5C237.631 331.5 237.801 331.5 237.971 331.5C238.141 331.5 238.311 331.5 238.481 331.5C238.651 331.5 238.822 331.5 238.992 331.5C239.163 331.5 239.334 331.5 239.504 331.5C239.675 331.5 239.846 331.5 240.017 331.5C240.188 331.5 240.359 331.5 240.53 331.5C240.702 331.5 240.873 331.5 241.045 331.5C241.216 331.5 241.388 331.5 241.56 331.5C241.731 331.5 241.903 331.5 242.075 331.5C242.247 331.5 242.419 331.5 242.591 331.5C242.764 331.5 242.936 331.5 243.108 331.5C243.281 331.5 243.453 331.5 243.626 331.5C243.799 331.5 243.971 331.5 244.144 331.5C244.317 331.5 244.49 331.5 244.663 331.5C244.836 331.5 245.01 331.5 245.183 331.5C245.356 331.5 245.53 331.5 245.703 331.5C245.877 331.5 246.05 331.5 246.224 331.5C246.398 331.5 246.572 331.5 246.745 331.5C246.919 331.5 247.093 331.5 247.268 331.5C247.442 331.5 247.616 331.5 247.79 331.5C247.965 331.5 248.139 331.5 248.314 331.5C248.488 331.5 248.663 331.5 248.838 331.5C249.012 331.5 249.187 331.5 249.362 331.5C249.537 331.5 249.712 331.5 249.887 331.5C250.062 331.5 250.237 331.5 250.413 331.5C250.588 331.5 250.763 331.5 250.939 331.5C251.114 331.5 251.29 331.5 251.465 331.5C251.641 331.5 251.817 331.5 251.993 331.5C252.168 331.5 252.344 331.5 252.52 331.5C252.696 331.5 252.872 331.5 253.048 331.5C253.225 331.5 253.401 331.5 253.577 331.5C253.753 331.5 253.93 331.5 254.106 331.5C254.283 331.5 254.459 331.5 254.636 331.5C254.812 331.5 254.989 331.5 255.166 331.5C255.343 331.5 255.52 331.5 255.697 331.5C255.873 331.5 256.05 331.5 256.228 331.5C256.405 331.5 256.582 331.5 256.759 331.5C256.936 331.5 257.113 331.5 257.291 331.5C257.468 331.5 257.646 331.5 257.823 331.5C258.001 331.5 258.178 331.5 258.356 331.5C258.533 331.5 258.711 331.5 258.889 331.5C259.067 331.5 259.244 331.5 259.422 331.5C259.6 331.5 259.778 331.5 259.956 331.5C260.134 331.5 260.312 331.5 260.49 331.5C260.669 331.5 260.847 331.5 261.025 331.5C261.203 331.5 261.382 331.5 261.56 331.5C261.738 331.5 261.917 331.5 262.095 331.5C262.274 331.5 262.452 331.5 262.631 331.5C262.809 331.5 262.988 331.5 263.167 331.5C263.345 331.5 263.524 331.5 263.703 331.5C263.882 331.5 264.061 331.5 264.24 331.5C264.418 331.5 264.597 331.5 264.776 331.5C264.955 331.5 265.134 331.5 265.313 331.5C265.492 331.5 265.672 331.5 265.851 331.5C266.03 331.5 266.209 331.5 266.388 331.5C266.568 331.5 266.747 331.5 266.926 331.5C267.106 331.5 267.285 331.5 267.464 331.5C267.644 331.5 267.823 331.5 268.003 331.5C268.182 331.5 268.362 331.5 268.541 331.5C268.721 331.5 268.901 331.5 269.08 331.5C269.26 331.5 269.439 331.5 269.619 331.5C269.799 331.5 269.979 331.5 270.158 331.5C270.338 331.5 270.518 331.5 270.698 331.5C270.878 331.5 271.057 331.5 271.237 331.5C271.417 331.5 271.597 331.5 271.777 331.5C271.957 331.5 272.137 331.5 272.317 331.5C272.497 331.5 272.677 331.5 272.857 331.5C273.037 331.5 273.217 331.5 273.397 331.5C273.577 331.5 273.757 331.5 273.937 331.5C274.117 331.5 274.298 331.5 274.478 331.5C274.658 331.5 274.838 331.5 275.018 331.5C275.198 331.5 275.379 331.5 275.559 331.5C275.739 331.5 275.919 331.5 276.099 331.5C276.28 331.5 276.46 331.5 276.64 331.5C276.82 331.5 277.001 331.5 277.181 331.5C277.361 331.5 277.542 331.5 277.722 331.5C277.902 331.5 278.083 331.5 278.263 331.5C278.443 331.5 278.624 331.5 278.804 331.5C278.984 331.5 279.165 331.5 279.345 331.5C279.525 331.5 279.706 331.5 279.886 331.5C280.066 331.5 280.247 331.5 280.427 331.5C280.607 331.5 280.788 331.5 280.968 331.5C281.148 331.5 281.329 331.5 281.509 331.5C281.689 331.5 281.87 331.5 282.05 331.5C282.23 331.5 282.411 331.5 282.591 331.5C282.771 331.5 282.952 331.5 283.132 331.5C283.312 331.5 283.492 331.5 283.673 331.5C283.853 331.5 284.033 331.5 284.214 331.5C284.394 331.5 284.574 331.5 284.754 331.5C284.935 331.5 285.115 331.5 285.295 331.5C285.475 331.5 285.655 331.5 285.836 331.5C286.016 331.5 286.196 331.5 286.376 331.5C286.556 331.5 286.736 331.5 286.917 331.5C287.097 331.5 287.277 331.5 287.457 331.5C287.637 331.5 287.817 331.5 287.997 331.5C288.177 331.5 288.357 331.5 288.537 331.5C288.717 331.5 288.897 331.5 289.077 331.5C289.257 331.5 289.437 331.5 289.617 331.5C289.796 331.5 289.976 331.5 290.156 331.5C290.336 331.5 290.516 331.5 290.695 331.5C290.875 331.5 291.055 331.5 291.235 331.5C291.414 331.5 291.594 331.5 291.774 331.5C291.953 331.5 292.133 331.5 292.312 331.5C292.492 331.5 292.672 331.5 292.851 331.5C293.031 331.5 293.21 331.5 293.389 331.5C293.569 331.5 293.748 331.5 293.928 331.5C294.107 331.5 294.286 331.5 294.465 331.5C294.645 331.5 294.824 331.5 295.003 331.5C295.182 331.5 295.361 331.5 295.54 331.5C295.72 331.5 295.899 331.5 296.078 331.5C296.257 331.5 296.435 331.5 296.614 331.5C296.793 331.5 296.972 331.5 297.151 331.5C297.33 331.5 297.508 331.5 297.687 331.5C297.866 331.5 298.044 331.5 298.223 331.5C298.402 331.5 298.58 331.5 298.759 331.5C298.937 331.5 299.116 331.5 299.294 331.5C299.472 331.5 299.651 331.5 299.829 331.5C300.007 331.5 300.185 331.5 300.363 331.5C300.542 331.5 300.72 331.5 300.898 331.5C301.076 331.5 301.254 331.5 301.432 331.5C301.609 331.5 301.787 331.5 301.965 331.5C302.143 331.5 302.32 331.5 302.498 331.5C302.676 331.5 302.853 331.5 303.031 331.5C303.208 331.5 303.386 331.5 303.563 331.5C303.74 331.5 303.918 331.5 304.095 331.5C304.272 331.5 304.449 331.5 304.626 331.5C304.803 331.5 304.98 331.5 305.157 331.5C305.334 331.5 305.511 331.5 305.688 331.5C305.865 331.5 306.042 331.5 306.218 331.5C306.395 331.5 306.571 331.5 306.748 331.5C306.924 331.5 307.101 331.5 307.277 331.5C307.453 331.5 307.629 331.5 307.806 331.5C307.982 331.5 308.158 331.5 308.334 331.5C308.51 331.5 308.686 331.5 308.862 331.5C309.037 331.5 309.213 331.5 309.389 331.5C309.564 331.5 309.74 331.5 309.915 331.5C310.091 331.5 310.266 331.5 310.441 331.5C310.617 331.5 310.792 331.5 310.967 331.5C311.142 331.5 311.317 331.5 311.492 331.5C311.667 331.5 311.842 331.5 312.017 331.5C312.191 331.5 312.366 331.5 312.54 331.5C312.715 331.5 312.889 331.5 313.064 331.5C313.238 331.5 313.412 331.5 313.586 331.5C313.761 331.5 313.935 331.5 314.109 331.5C314.283 331.5 314.456 331.5 314.63 331.5C314.804 331.5 314.978 331.5 315.151 331.5C315.325 331.5 315.498 331.5 315.671 331.5C315.845 331.5 316.018 331.5 316.191 331.5C316.364 331.5 316.537 331.5 316.71 331.5C316.883 331.5 317.056 331.5 317.228 331.5C317.401 331.5 317.573 331.5 317.746 331.5C317.918 331.5 318.091 331.5 318.263 331.5C318.435 331.5 318.607 331.5 318.779 331.5C318.951 331.5 319.123 331.5 319.295 331.5C319.466 331.5 319.638 331.5 319.81 331.5C319.981 331.5 320.152 331.5 320.324 331.5C320.495 331.5 320.666 331.5 320.837 331.5C321.008 331.5 321.179 331.5 321.35 331.5C321.521 331.5 321.691 331.5 321.862 331.5C322.032 331.5 322.203 331.5 322.373 331.5C322.543 331.5 322.713 331.5 322.883 331.5C323.054 331.5 323.223 331.5 323.393 331.5C323.563 331.5 323.733 331.5 323.902 331.5C324.072 331.5 324.241 331.5 324.41 331.5C324.579 331.5 324.748 331.5 324.917 331.5C325.086 331.5 325.255 331.5 325.424 331.5C325.593 331.5 325.761 331.5 325.93 331.5C326.098 331.5 326.266 331.5 326.434 331.5C326.602 331.5 326.77 331.5 326.938 331.5C327.106 331.5 327.274 331.5 327.441 331.5C327.609 331.5 327.776 331.5 327.944 331.5C328.111 331.5 328.278 331.5 328.445 331.5C328.612 331.5 328.779 331.5 328.946 331.5C329.112 331.5 329.279 331.5 329.445 331.5C329.612 331.5 329.778 331.5 329.944 331.5C330.11 331.5 330.276 331.5 330.442 331.5C330.607 331.5 330.773 331.5 330.939 331.5C331.104 331.5 331.269 331.5 331.435 331.5C331.6 331.5 331.765 331.5 331.93 331.5C332.094 331.5 332.259 331.5 332.424 331.5C332.588 331.5 332.752 331.5 332.917 331.5C333.081 331.5 333.245 331.5 333.409 331.5C333.573 331.5 333.736 331.5 333.9 331.5C334.064 331.5 334.227 331.5 334.39 331.5C334.553 331.5 334.716 331.5 334.879 331.5C335.042 331.5 335.205 331.5 335.367 331.5C335.53 331.5 335.692 331.5 335.855 331.5C336.017 331.5 336.179 331.5 336.341 331.5C336.503 331.5 336.664 331.5 336.826 331.5C336.987 331.5 337.149 331.5 337.31 331.5C337.471 331.5 337.632 331.5 337.793 331.5C337.954 331.5 338.114 331.5 338.275 331.5C338.435 331.5 338.596 331.5 338.756 331.5C338.916 331.5 339.076 331.5 339.235 331.5C339.395 331.5 339.555 331.5 339.714 331.5C339.873 331.5 340.033 331.5 340.192 331.5C340.351 331.5 340.509 331.5 340.668 331.5C340.827 331.5 340.985 331.5 341.143 331.5C341.302 331.5 341.46 331.5 341.618 331.5C341.775 331.5 341.933 331.5 342.091 331.5C342.248 331.5 342.405 331.5 342.563 331.5C342.72 331.5 342.877 331.5 343.033 331.5C343.19 331.5 343.347 331.5 343.503 331.5C343.659 331.5 343.815 331.5 343.971 331.5C344.127 331.5 344.283 331.5 344.438 331.5C344.594 331.5 344.749 331.5 344.904 331.5C345.06 331.5 345.214 331.5 345.369 331.5C345.524 331.5 345.678 331.5 345.833 331.5C345.987 331.5 346.141 331.5 346.295 331.5C346.449 331.5 346.603 331.5 346.756 331.5C346.91 331.5 347.063 331.5 347.216 331.5C347.369 331.5 347.522 331.5 347.675 331.5C347.827 331.5 347.98 331.5 348.132 331.5C348.284 331.5 348.436 331.5 348.588 331.5C348.74 331.5 348.891 331.5 349.043 331.5C349.194 331.5 349.345 331.5 349.496 331.5C349.647 331.5 349.798 331.5 349.948 331.5C350.099 331.5 350.249 331.5 350.399 331.5C350.549 331.5 350.699 331.5 350.849 331.5C350.998 331.5 351.148 331.5 351.297 331.5C351.446 331.5 351.595 331.5 351.744 331.5C351.892 331.5 352.041 331.5 352.189 331.5C352.337 331.5 352.485 331.5 352.633 331.5C352.781 331.5 352.929 331.5 353.076 331.5C353.223 331.5 353.37 331.5 353.517 331.5C353.664 331.5 353.811 331.5 353.957 331.5C354.104 331.5 354.25 331.5 354.396 331.5C354.542 331.5 354.687 331.5 354.833 331.5C354.978 331.5 355.124 331.5 355.269 331.5C355.414 331.5 355.558 331.5 355.703 331.5C355.847 331.5 355.992 331.5 356.136 331.5C356.28 331.5 356.423 331.5 356.567 331.5C356.711 331.5 356.854 331.5 356.997 331.5C357.14 331.5 357.283 331.5 357.425 331.5C357.568 331.5 357.71 331.5 357.852 331.5C357.994 331.5 358.136 331.5 358.278 331.5C358.419 331.5 358.561 331.5 358.702 331.5C358.843 331.5 358.984 331.5 359.124 331.5C359.265 331.5 359.405 331.5 359.545 331.5C359.685 331.5 359.825 331.5 359.965 331.5C360.104 331.5 360.243 331.5 360.382 331.5C360.521 331.5 360.66 331.5 360.799 331.5C360.937 331.5 361.076 331.5 361.214 331.5C361.351 331.5 361.489 331.5 361.627 331.5C361.764 331.5 361.901 331.5 362.038 331.5C362.175 331.5 362.312 331.5 362.448 331.5C362.585 331.5 362.721 331.5 362.857 331.5C362.993 331.5 363.128 331.5 363.264 331.5C363.399 331.5 363.534 331.5 363.669 331.5C363.804 331.5 363.938 331.5 364.072 331.5C364.207 331.5 364.341 331.5 364.474 331.5C364.608 331.5 364.741 331.5 364.875 331.5C365.008 331.5 365.141 331.5 365.273 331.5C365.406 331.5 365.538 331.5 365.67 331.5C365.802 331.5 365.934 331.5 366.065 331.5C366.197 331.5 366.328 331.5 366.459 331.5C366.59 331.5 366.721 331.5 366.851 331.5C366.981 331.5 367.111 331.5 367.241 331.5C367.371 331.5 367.5 331.5 367.63 331.5C367.759 331.5 367.888 331.5 368.016 331.5C368.145 331.5 368.273 331.5 368.401 331.5C368.53 331.5 368.657 331.5 368.785 331.5C368.912 331.5 369.039 331.5 369.166 331.5C369.293 331.5 369.42 331.5 369.546 331.5C369.672 331.5 369.798 331.5 369.924 331.5C370.05 331.5 370.175 331.5 370.3 331.5C370.425 331.5 370.55 331.5 370.675 331.5C370.799 331.5 370.923 331.5 371.047 331.5V316.5C370.923 316.5 370.799 316.5 370.675 316.5C370.55 316.5 370.425 316.5 370.3 316.5C370.175 316.5 370.05 316.5 369.924 316.5C369.798 316.5 369.672 316.5 369.546 316.5C369.42 316.5 369.293 316.5 369.166 316.5C369.039 316.5 368.912 316.5 368.785 316.5C368.657 316.5 368.53 316.5 368.401 316.5C368.273 316.5 368.145 316.5 368.016 316.5C367.888 316.5 367.759 316.5 367.63 316.5C367.5 316.5 367.371 316.5 367.241 316.5C367.111 316.5 366.981 316.5 366.851 316.5C366.721 316.5 366.59 316.5 366.459 316.5C366.328 316.5 366.197 316.5 366.065 316.5C365.934 316.5 365.802 316.5 365.67 316.5C365.538 316.5 365.406 316.5 365.273 316.5C365.141 316.5 365.008 316.5 364.875 316.5C364.741 316.5 364.608 316.5 364.474 316.5C364.341 316.5 364.207 316.5 364.072 316.5C363.938 316.5 363.804 316.5 363.669 316.5C363.534 316.5 363.399 316.5 363.264 316.5C363.128 316.5 362.993 316.5 362.857 316.5C362.721 316.5 362.585 316.5 362.448 316.5C362.312 316.5 362.175 316.5 362.038 316.5C361.901 316.5 361.764 316.5 361.627 316.5C361.489 316.5 361.351 316.5 361.214 316.5C361.076 316.5 360.937 316.5 360.799 316.5C360.66 316.5 360.521 316.5 360.382 316.5C360.243 316.5 360.104 316.5 359.965 316.5C359.825 316.5 359.685 316.5 359.545 316.5C359.405 316.5 359.265 316.5 359.124 316.5C358.984 316.5 358.843 316.5 358.702 316.5C358.561 316.5 358.419 316.5 358.278 316.5C358.136 316.5 357.994 316.5 357.852 316.5C357.71 316.5 357.568 316.5 357.425 316.5C357.283 316.5 357.14 316.5 356.997 316.5C356.854 316.5 356.711 316.5 356.567 316.5C356.423 316.5 356.28 316.5 356.136 316.5C355.992 316.5 355.847 316.5 355.703 316.5C355.558 316.5 355.414 316.5 355.269 316.5C355.124 316.5 354.978 316.5 354.833 316.5C354.687 316.5 354.542 316.5 354.396 316.5C354.25 316.5 354.104 316.5 353.957 316.5C353.811 316.5 353.664 316.5 353.517 316.5C353.37 316.5 353.223 316.5 353.076 316.5C352.929 316.5 352.781 316.5 352.633 316.5C352.485 316.5 352.337 316.5 352.189 316.5C352.041 316.5 351.892 316.5 351.744 316.5C351.595 316.5 351.446 316.5 351.297 316.5C351.148 316.5 350.998 316.5 350.849 316.5C350.699 316.5 350.549 316.5 350.399 316.5C350.249 316.5 350.099 316.5 349.948 316.5C349.798 316.5 349.647 316.5 349.496 316.5C349.345 316.5 349.194 316.5 349.043 316.5C348.891 316.5 348.74 316.5 348.588 316.5C348.436 316.5 348.284 316.5 348.132 316.5C347.98 316.5 347.827 316.5 347.675 316.5C347.522 316.5 347.369 316.5 347.216 316.5C347.063 316.5 346.91 316.5 346.756 316.5C346.603 316.5 346.449 316.5 346.295 316.5C346.141 316.5 345.987 316.5 345.833 316.5C345.678 316.5 345.524 316.5 345.369 316.5C345.214 316.5 345.06 316.5 344.904 316.5C344.749 316.5 344.594 316.5 344.438 316.5C344.283 316.5 344.127 316.5 343.971 316.5C343.815 316.5 343.659 316.5 343.503 316.5C343.347 316.5 343.19 316.5 343.033 316.5C342.877 316.5 342.72 316.5 342.563 316.5C342.405 316.5 342.248 316.5 342.091 316.5C341.933 316.5 341.775 316.5 341.618 316.5C341.46 316.5 341.302 316.5 341.143 316.5C340.985 316.5 340.827 316.5 340.668 316.5C340.509 316.5 340.351 316.5 340.192 316.5C340.033 316.5 339.873 316.5 339.714 316.5C339.555 316.5 339.395 316.5 339.235 316.5C339.076 316.5 338.916 316.5 338.756 316.5C338.596 316.5 338.435 316.5 338.275 316.5C338.114 316.5 337.954 316.5 337.793 316.5C337.632 316.5 337.471 316.5 337.31 316.5C337.149 316.5 336.987 316.5 336.826 316.5C336.664 316.5 336.503 316.5 336.341 316.5C336.179 316.5 336.017 316.5 335.855 316.5C335.692 316.5 335.53 316.5 335.367 316.5C335.205 316.5 335.042 316.5 334.879 316.5C334.716 316.5 334.553 316.5 334.39 316.5C334.227 316.5 334.064 316.5 333.9 316.5C333.736 316.5 333.573 316.5 333.409 316.5C333.245 316.5 333.081 316.5 332.917 316.5C332.752 316.5 332.588 316.5 332.424 316.5C332.259 316.5 332.094 316.5 331.93 316.5C331.765 316.5 331.6 316.5 331.435 316.5C331.269 316.5 331.104 316.5 330.939 316.5C330.773 316.5 330.607 316.5 330.442 316.5C330.276 316.5 330.11 316.5 329.944 316.5C329.778 316.5 329.612 316.5 329.445 316.5C329.279 316.5 329.112 316.5 328.946 316.5C328.779 316.5 328.612 316.5 328.445 316.5C328.278 316.5 328.111 316.5 327.944 316.5C327.776 316.5 327.609 316.5 327.441 316.5C327.274 316.5 327.106 316.5 326.938 316.5C326.77 316.5 326.602 316.5 326.434 316.5C326.266 316.5 326.098 316.5 325.93 316.5C325.761 316.5 325.593 316.5 325.424 316.5C325.255 316.5 325.086 316.5 324.917 316.5C324.748 316.5 324.579 316.5 324.41 316.5C324.241 316.5 324.072 316.5 323.902 316.5C323.733 316.5 323.563 316.5 323.393 316.5C323.223 316.5 323.054 316.5 322.883 316.5C322.713 316.5 322.543 316.5 322.373 316.5C322.203 316.5 322.032 316.5 321.862 316.5C321.691 316.5 321.521 316.5 321.35 316.5C321.179 316.5 321.008 316.5 320.837 316.5C320.666 316.5 320.495 316.5 320.324 316.5C320.152 316.5 319.981 316.5 319.81 316.5C319.638 316.5 319.466 316.5 319.295 316.5C319.123 316.5 318.951 316.5 318.779 316.5C318.607 316.5 318.435 316.5 318.263 316.5C318.091 316.5 317.918 316.5 317.746 316.5C317.573 316.5 317.401 316.5 317.228 316.5C317.056 316.5 316.883 316.5 316.71 316.5C316.537 316.5 316.364 316.5 316.191 316.5C316.018 316.5 315.845 316.5 315.671 316.5C315.498 316.5 315.325 316.5 315.151 316.5C314.978 316.5 314.804 316.5 314.63 316.5C314.456 316.5 314.283 316.5 314.109 316.5C313.935 316.5 313.761 316.5 313.586 316.5C313.412 316.5 313.238 316.5 313.064 316.5C312.889 316.5 312.715 316.5 312.54 316.5C312.366 316.5 312.191 316.5 312.017 316.5C311.842 316.5 311.667 316.5 311.492 316.5C311.317 316.5 311.142 316.5 310.967 316.5C310.792 316.5 310.617 316.5 310.441 316.5C310.266 316.5 310.091 316.5 309.915 316.5C309.74 316.5 309.564 316.5 309.389 316.5C309.213 316.5 309.037 316.5 308.862 316.5C308.686 316.5 308.51 316.5 308.334 316.5C308.158 316.5 307.982 316.5 307.806 316.5C307.629 316.5 307.453 316.5 307.277 316.5C307.101 316.5 306.924 316.5 306.748 316.5C306.571 316.5 306.395 316.5 306.218 316.5C306.042 316.5 305.865 316.5 305.688 316.5C305.511 316.5 305.334 316.5 305.157 316.5C304.98 316.5 304.803 316.5 304.626 316.5C304.449 316.5 304.272 316.5 304.095 316.5C303.918 316.5 303.74 316.5 303.563 316.5C303.386 316.5 303.208 316.5 303.031 316.5C302.853 316.5 302.676 316.5 302.498 316.5C302.32 316.5 302.143 316.5 301.965 316.5C301.787 316.5 301.609 316.5 301.432 316.5C301.254 316.5 301.076 316.5 300.898 316.5C300.72 316.5 300.542 316.5 300.363 316.5C300.185 316.5 300.007 316.5 299.829 316.5C299.651 316.5 299.472 316.5 299.294 316.5C299.116 316.5 298.937 316.5 298.759 316.5C298.58 316.5 298.402 316.5 298.223 316.5C298.044 316.5 297.866 316.5 297.687 316.5C297.508 316.5 297.33 316.5 297.151 316.5C296.972 316.5 296.793 316.5 296.614 316.5C296.435 316.5 296.257 316.5 296.078 316.5C295.899 316.5 295.72 316.5 295.54 316.5C295.361 316.5 295.182 316.5 295.003 316.5C294.824 316.5 294.645 316.5 294.465 316.5C294.286 316.5 294.107 316.5 293.928 316.5C293.748 316.5 293.569 316.5 293.389 316.5C293.21 316.5 293.031 316.5 292.851 316.5C292.672 316.5 292.492 316.5 292.312 316.5C292.133 316.5 291.953 316.5 291.774 316.5C291.594 316.5 291.414 316.5 291.235 316.5C291.055 316.5 290.875 316.5 290.695 316.5C290.516 316.5 290.336 316.5 290.156 316.5C289.976 316.5 289.796 316.5 289.617 316.5C289.437 316.5 289.257 316.5 289.077 316.5C288.897 316.5 288.717 316.5 288.537 316.5C288.357 316.5 288.177 316.5 287.997 316.5C287.817 316.5 287.637 316.5 287.457 316.5C287.277 316.5 287.097 316.5 286.917 316.5C286.736 316.5 286.556 316.5 286.376 316.5C286.196 316.5 286.016 316.5 285.836 316.5C285.655 316.5 285.475 316.5 285.295 316.5C285.115 316.5 284.935 316.5 284.754 316.5C284.574 316.5 284.394 316.5 284.214 316.5C284.033 316.5 283.853 316.5 283.673 316.5C283.492 316.5 283.312 316.5 283.132 316.5C282.952 316.5 282.771 316.5 282.591 316.5C282.411 316.5 282.23 316.5 282.05 316.5C281.87 316.5 281.689 316.5 281.509 316.5C281.329 316.5 281.148 316.5 280.968 316.5C280.788 316.5 280.607 316.5 280.427 316.5C280.247 316.5 280.066 316.5 279.886 316.5C279.706 316.5 279.525 316.5 279.345 316.5C279.165 316.5 278.984 316.5 278.804 316.5C278.624 316.5 278.443 316.5 278.263 316.5C278.083 316.5 277.902 316.5 277.722 316.5C277.542 316.5 277.361 316.5 277.181 316.5C277.001 316.5 276.82 316.5 276.64 316.5C276.46 316.5 276.28 316.5 276.099 316.5C275.919 316.5 275.739 316.5 275.559 316.5C275.379 316.5 275.198 316.5 275.018 316.5C274.838 316.5 274.658 316.5 274.478 316.5C274.298 316.5 274.117 316.5 273.937 316.5C273.757 316.5 273.577 316.5 273.397 316.5C273.217 316.5 273.037 316.5 272.857 316.5C272.677 316.5 272.497 316.5 272.317 316.5C272.137 316.5 271.957 316.5 271.777 316.5C271.597 316.5 271.417 316.5 271.237 316.5C271.057 316.5 270.878 316.5 270.698 316.5C270.518 316.5 270.338 316.5 270.158 316.5C269.979 316.5 269.799 316.5 269.619 316.5C269.439 316.5 269.26 316.5 269.08 316.5C268.901 316.5 268.721 316.5 268.541 316.5C268.362 316.5 268.182 316.5 268.003 316.5C267.823 316.5 267.644 316.5 267.464 316.5C267.285 316.5 267.106 316.5 266.926 316.5C266.747 316.5 266.568 316.5 266.388 316.5C266.209 316.5 266.03 316.5 265.851 316.5C265.672 316.5 265.492 316.5 265.313 316.5C265.134 316.5 264.955 316.5 264.776 316.5C264.597 316.5 264.418 316.5 264.24 316.5C264.061 316.5 263.882 316.5 263.703 316.5C263.524 316.5 263.345 316.5 263.167 316.5C262.988 316.5 262.809 316.5 262.631 316.5C262.452 316.5 262.274 316.5 262.095 316.5C261.917 316.5 261.738 316.5 261.56 316.5C261.382 316.5 261.203 316.5 261.025 316.5C260.847 316.5 260.669 316.5 260.49 316.5C260.312 316.5 260.134 316.5 259.956 316.5C259.778 316.5 259.6 316.5 259.422 316.5C259.244 316.5 259.067 316.5 258.889 316.5C258.711 316.5 258.533 316.5 258.356 316.5C258.178 316.5 258.001 316.5 257.823 316.5C257.646 316.5 257.468 316.5 257.291 316.5C257.113 316.5 256.936 316.5 256.759 316.5C256.582 316.5 256.405 316.5 256.228 316.5C256.05 316.5 255.873 316.5 255.697 316.5C255.52 316.5 255.343 316.5 255.166 316.5C254.989 316.5 254.812 316.5 254.636 316.5C254.459 316.5 254.283 316.5 254.106 316.5C253.93 316.5 253.753 316.5 253.577 316.5C253.401 316.5 253.225 316.5 253.048 316.5C252.872 316.5 252.696 316.5 252.52 316.5C252.344 316.5 252.168 316.5 251.993 316.5C251.817 316.5 251.641 316.5 251.465 316.5C251.29 316.5 251.114 316.5 250.939 316.5C250.763 316.5 250.588 316.5 250.413 316.5C250.237 316.5 250.062 316.5 249.887 316.5C249.712 316.5 249.537 316.5 249.362 316.5C249.187 316.5 249.012 316.5 248.838 316.5C248.663 316.5 248.488 316.5 248.314 316.5C248.139 316.5 247.965 316.5 247.79 316.5C247.616 316.5 247.442 316.5 247.268 316.5C247.093 316.5 246.919 316.5 246.745 316.5C246.572 316.5 246.398 316.5 246.224 316.5C246.05 316.5 245.877 316.5 245.703 316.5C245.53 316.5 245.356 316.5 245.183 316.5C245.01 316.5 244.836 316.5 244.663 316.5C244.49 316.5 244.317 316.5 244.144 316.5C243.971 316.5 243.799 316.5 243.626 316.5C243.453 316.5 243.281 316.5 243.108 316.5C242.936 316.5 242.764 316.5 242.591 316.5C242.419 316.5 242.247 316.5 242.075 316.5C241.903 316.5 241.731 316.5 241.56 316.5C241.388 316.5 241.216 316.5 241.045 316.5C240.873 316.5 240.702 316.5 240.53 316.5C240.359 316.5 240.188 316.5 240.017 316.5C239.846 316.5 239.675 316.5 239.504 316.5C239.334 316.5 239.163 316.5 238.992 316.5C238.822 316.5 238.651 316.5 238.481 316.5C238.311 316.5 238.141 316.5 237.971 316.5C237.801 316.5 237.631 316.5 237.461 316.5C237.291 316.5 237.122 316.5 236.952 316.5C236.783 316.5 236.613 316.5 236.444 316.5C236.275 316.5 236.106 316.5 235.937 316.5C235.768 316.5 235.599 316.5 235.43 316.5C235.262 316.5 235.093 316.5 234.925 316.5C234.756 316.5 234.588 316.5 234.42 316.5C234.252 316.5 234.084 316.5 233.916 316.5C233.748 316.5 233.581 316.5 233.413 316.5C233.245 316.5 233.078 316.5 232.911 316.5C232.743 316.5 232.576 316.5 232.409 316.5C232.242 316.5 232.076 316.5 231.909 316.5C231.742 316.5 231.576 316.5 231.409 316.5C231.243 316.5 231.077 316.5 230.911 316.5C230.745 316.5 230.579 316.5 230.413 316.5C230.247 316.5 230.081 316.5 229.916 316.5C229.75 316.5 229.585 316.5 229.42 316.5C229.255 316.5 229.09 316.5 228.925 316.5C228.76 316.5 228.596 316.5 228.431 316.5C228.266 316.5 228.102 316.5 227.938 316.5C227.774 316.5 227.61 316.5 227.446 316.5C227.282 316.5 227.118 316.5 226.955 316.5C226.791 316.5 226.628 316.5 226.464 316.5C226.301 316.5 226.138 316.5 225.975 316.5C225.812 316.5 225.65 316.5 225.487 316.5C225.325 316.5 225.162 316.5 225 316.5C224.838 316.5 224.676 316.5 224.514 316.5C224.352 316.5 224.19 316.5 224.029 316.5C223.867 316.5 223.706 316.5 223.545 316.5C223.384 316.5 223.223 316.5 223.062 316.5C222.901 316.5 222.74 316.5 222.58 316.5C222.419 316.5 222.259 316.5 222.099 316.5C221.939 316.5 221.779 316.5 221.619 316.5C221.46 316.5 221.3 316.5 221.141 316.5C220.981 316.5 220.822 316.5 220.663 316.5C220.504 316.5 220.345 316.5 220.187 316.5C220.028 316.5 219.87 316.5 219.711 316.5C219.553 316.5 219.395 316.5 219.237 316.5C219.079 316.5 218.922 316.5 218.764 316.5C218.607 316.5 218.449 316.5 218.292 316.5C218.135 316.5 217.978 316.5 217.822 316.5C217.665 316.5 217.508 316.5 217.352 316.5C217.196 316.5 217.04 316.5 216.884 316.5C216.728 316.5 216.572 316.5 216.417 316.5C216.261 316.5 216.106 316.5 215.951 316.5C215.795 316.5 215.641 316.5 215.486 316.5C215.331 316.5 215.177 316.5 215.022 316.5C214.868 316.5 214.714 316.5 214.56 316.5C214.406 316.5 214.252 316.5 214.099 316.5C213.945 316.5 213.792 316.5 213.639 316.5C213.486 316.5 213.333 316.5 213.181 316.5C213.028 316.5 212.875 316.5 212.723 316.5C212.571 316.5 212.419 316.5 212.267 316.5C212.115 316.5 211.964 316.5 211.812 316.5C211.661 316.5 211.51 316.5 211.359 316.5C211.208 316.5 211.057 316.5 210.907 316.5C210.756 316.5 210.606 316.5 210.456 316.5C210.306 316.5 210.156 316.5 210.007 316.5C209.857 316.5 209.708 316.5 209.558 316.5C209.409 316.5 209.26 316.5 209.112 316.5C208.963 316.5 208.814 316.5 208.666 316.5C208.518 316.5 208.37 316.5 208.222 316.5C208.074 316.5 207.927 316.5 207.779 316.5C207.632 316.5 207.485 316.5 207.338 316.5C207.191 316.5 207.045 316.5 206.898 316.5C206.752 316.5 206.606 316.5 206.46 316.5C206.314 316.5 206.168 316.5 206.023 316.5C205.877 316.5 205.732 316.5 205.587 316.5C205.442 316.5 205.297 316.5 205.153 316.5C205.008 316.5 204.864 316.5 204.72 316.5C204.576 316.5 204.432 316.5 204.289 316.5C204.145 316.5 204.002 316.5 203.859 316.5C203.716 316.5 203.573 316.5 203.43 316.5C203.288 316.5 203.145 316.5 203.003 316.5C202.861 316.5 202.719 316.5 202.578 316.5C202.436 316.5 202.295 316.5 202.154 316.5C202.013 316.5 201.872 316.5 201.731 316.5C201.591 316.5 201.451 316.5 201.311 316.5C201.171 316.5 201.031 316.5 200.891 316.5C200.752 316.5 200.612 316.5 200.473 316.5C200.334 316.5 200.196 316.5 200.057 316.5C199.919 316.5 199.78 316.5 199.642 316.5C199.504 316.5 199.367 316.5 199.229 316.5C199.092 316.5 198.955 316.5 198.818 316.5C198.681 316.5 198.544 316.5 198.408 316.5C198.271 316.5 198.135 316.5 197.999 316.5C197.863 316.5 197.728 316.5 197.592 316.5C197.457 316.5 197.322 316.5 197.187 316.5C197.052 316.5 196.918 316.5 196.784 316.5C196.649 316.5 196.515 316.5 196.382 316.5C196.248 316.5 196.115 316.5 195.981 316.5C195.848 316.5 195.715 316.5 195.583 316.5C195.45 316.5 195.318 316.5 195.186 316.5C195.054 316.5 194.922 316.5 194.791 316.5C194.659 316.5 194.528 316.5 194.397 316.5C194.266 316.5 194.136 316.5 194.005 316.5C193.875 316.5 193.745 316.5 193.615 316.5C193.485 316.5 193.356 316.5 193.227 316.5C193.097 316.5 192.968 316.5 192.84 316.5C192.711 316.5 192.583 316.5 192.455 316.5C192.327 316.5 192.199 316.5 192.072 316.5C191.944 316.5 191.817 316.5 191.69 316.5C191.563 316.5 191.437 316.5 191.31 316.5C191.184 316.5 191.058 316.5 190.932 316.5C190.807 316.5 190.681 316.5 190.556 316.5C190.431 316.5 190.306 316.5 190.182 316.5C190.057 316.5 189.933 316.5 189.809 316.5C189.685 316.5 189.562 316.5 189.438 316.5C189.315 316.5 189.192 316.5 189.069 316.5C188.947 316.5 188.824 316.5 188.702 316.5C188.58 316.5 188.458 316.5 188.337 316.5C188.215 316.5 188.094 316.5 187.973 316.5C187.853 316.5 187.732 316.5 187.612 316.5C187.492 316.5 187.372 316.5 187.252 316.5C187.132 316.5 187.013 316.5 186.894 316.5C186.775 316.5 186.657 316.5 186.538 316.5C186.42 316.5 186.302 316.5 186.184 316.5C186.067 316.5 185.949 316.5 185.832 316.5C185.715 316.5 185.598 316.5 185.482 316.5C185.365 316.5 185.249 316.5 185.134 316.5C185.018 316.5 184.902 316.5 184.787 316.5C184.672 316.5 184.557 316.5 184.443 316.5C184.328 316.5 184.214 316.5 184.1 316.5C183.986 316.5 183.873 316.5 183.76 316.5C183.647 316.5 183.534 316.5 183.421 316.5C183.309 316.5 183.197 316.5 183.085 316.5C182.973 316.5 182.861 316.5 182.75 316.5C182.639 316.5 182.528 316.5 182.418 316.5C182.307 316.5 182.197 316.5 182.087 316.5C181.977 316.5 181.868 316.5 181.759 316.5C181.649 316.5 181.541 316.5 181.432 316.5C181.324 316.5 181.215 316.5 181.108 316.5C181 316.5 180.892 316.5 180.785 316.5C180.678 316.5 180.571 316.5 180.465 316.5C180.359 316.5 180.253 316.5 180.147 316.5C180.041 316.5 179.936 316.5 179.831 316.5C179.726 316.5 179.621 316.5 179.517 316.5C179.412 316.5 179.308 316.5 179.205 316.5C179.101 316.5 178.998 316.5 178.895 316.5C178.792 316.5 178.689 316.5 178.587 316.5C178.485 316.5 178.383 316.5 178.281 316.5C178.18 316.5 178.079 316.5 177.978 316.5C177.877 316.5 177.777 316.5 177.677 316.5C177.577 316.5 177.477 316.5 177.377 316.5C177.278 316.5 177.179 316.5 177.081 316.5C176.982 316.5 176.884 316.5 176.786 316.5C176.688 316.5 176.59 316.5 176.493 316.5C176.396 316.5 176.299 316.5 176.203 316.5C176.106 316.5 176.01 316.5 175.914 316.5C175.819 316.5 175.723 316.5 175.628 316.5C175.534 316.5 175.439 316.5 175.345 316.5C175.251 316.5 175.157 316.5 175.063 316.5C174.97 316.5 174.877 316.5 174.784 316.5C174.691 316.5 174.599 316.5 174.507 316.5C174.415 316.5 174.323 316.5 174.232 316.5C174.141 316.5 174.05 316.5 173.96 316.5C173.869 316.5 173.779 316.5 173.689 316.5C173.6 316.5 173.51 316.5 173.422 316.5C173.333 316.5 173.244 316.5 173.156 316.5C173.068 316.5 172.98 316.5 172.893 316.5C172.805 316.5 172.718 316.5 172.632 316.5C172.545 316.5 172.459 316.5 172.373 316.5C172.287 316.5 172.202 316.5 172.117 316.5C172.032 316.5 171.947 316.5 171.863 316.5C171.779 316.5 171.695 316.5 171.611 316.5C171.528 316.5 171.445 316.5 171.362 316.5C171.28 316.5 171.197 316.5 171.115 316.5C171.033 316.5 170.952 316.5 170.871 316.5C170.79 316.5 170.709 316.5 170.629 316.5C170.549 316.5 170.469 316.5 170.389 316.5C170.31 316.5 170.231 316.5 170.152 316.5C170.074 316.5 169.995 316.5 169.917 316.5C169.84 316.5 169.762 316.5 169.685 316.5C169.608 316.5 169.531 316.5 169.455 316.5C169.379 316.5 169.303 316.5 169.228 316.5C169.152 316.5 169.077 316.5 169.003 316.5C168.928 316.5 168.854 316.5 168.78 316.5C168.707 316.5 168.633 316.5 168.561 316.5C168.488 316.5 168.415 316.5 168.343 316.5C168.271 316.5 168.199 316.5 168.128 316.5C168.057 316.5 167.986 316.5 167.916 316.5C167.845 316.5 167.775 316.5 167.706 316.5C167.636 316.5 167.567 316.5 167.498 316.5C167.43 316.5 167.361 316.5 167.294 316.5C167.226 316.5 167.158 316.5 167.091 316.5C167.024 316.5 166.958 316.5 166.892 316.5C166.825 316.5 166.76 316.5 166.694 316.5C166.629 316.5 166.564 316.5 166.5 316.5C166.435 316.5 166.371 316.5 166.308 316.5C166.244 316.5 166.181 316.5 166.119 316.5C166.056 316.5 165.994 316.5 165.932 316.5C165.87 316.5 165.809 316.5 165.748 316.5C165.687 316.5 165.626 316.5 165.566 316.5C165.506 316.5 165.447 316.5 165.387 316.5C165.328 316.5 165.27 316.5 165.211 316.5C165.153 316.5 165.095 316.5 165.038 316.5C164.98 316.5 164.923 316.5 164.867 316.5C164.81 316.5 164.754 316.5 164.699 316.5C164.643 316.5 164.588 316.5 164.533 316.5C164.479 316.5 164.424 316.5 164.371 316.5C164.317 316.5 164.263 316.5 164.211 316.5C164.158 316.5 164.105 316.5 164.053 316.5C164.001 316.5 163.95 316.5 163.899 316.5C163.848 316.5 163.797 316.5 163.747 316.5C163.697 316.5 163.647 316.5 163.598 316.5C163.548 316.5 163.5 316.5 163.451 316.5C163.403 316.5 163.355 316.5 163.308 316.5C163.26 316.5 163.213 316.5 163.167 316.5C163.121 316.5 163.075 316.5 163.029 316.5C162.983 316.5 162.938 316.5 162.894 316.5C162.849 316.5 162.805 316.5 162.761 316.5C162.718 316.5 162.675 316.5 162.632 316.5C162.589 316.5 162.547 316.5 162.505 316.5C162.463 316.5 162.422 316.5 162.381 316.5C162.34 316.5 162.3 316.5 162.26 316.5C162.22 316.5 162.181 316.5 162.142 316.5C162.103 316.5 162.064 316.5 162.027 316.5C161.989 316.5 161.951 316.5 161.914 316.5C161.877 316.5 161.84 316.5 161.804 316.5C161.768 316.5 161.733 316.5 161.698 316.5C161.663 316.5 161.628 316.5 161.594 316.5C161.56 316.5 161.526 316.5 161.493 316.5C161.46 316.5 161.427 316.5 161.395 316.5C161.363 316.5 161.331 316.5 161.3 316.5C161.269 316.5 161.238 316.5 161.208 316.5C161.178 316.5 161.148 316.5 161.119 316.5C161.09 316.5 161.061 316.5 161.033 316.5C161.005 316.5 160.977 316.5 160.95 316.5C160.922 316.5 160.896 316.5 160.869 316.5C160.843 316.5 160.818 316.5 160.792 316.5C160.767 316.5 160.742 316.5 160.718 316.5C160.694 316.5 160.67 316.5 160.647 316.5C160.624 316.5 160.601 316.5 160.579 316.5C160.557 316.5 160.535 316.5 160.514 316.5C160.492 316.5 160.472 316.5 160.452 316.5C160.431 316.5 160.412 316.5 160.392 316.5C160.373 316.5 160.355 316.5 160.337 316.5C160.318 316.5 160.301 316.5 160.284 316.5C160.266 316.5 160.25 316.5 160.234 316.5C160.218 316.5 160.202 316.5 160.187 316.5C160.172 316.5 160.157 316.5 160.143 316.5C160.129 316.5 160.116 316.5 160.103 316.5C160.09 316.5 160.077 316.5 160.065 316.5C160.053 316.5 160.042 316.5 160.031 316.5C160.02 316.5 160.01 316.5 160 316.5V331.5ZM408.5 294V38H393.5V294H408.5ZM371 0.5H60V15.5H371V0.5ZM22.5 38V294H37.5V38H22.5ZM60 331.5H74V316.5H60V331.5ZM74 324C66.5 324 66.5 324 66.5 324.001C66.5 324.001 66.5 324.002 66.5 324.003C66.5 324.004 66.5 324.006 66.5 324.008C66.5 324.009 66.5 324.011 66.5 324.013C66.5 324.016 66.5 324.018 66.5 324.021C66.5 324.024 66.5 324.027 66.5 324.03C66.5 324.033 66.5 324.037 66.5 324.041C66.5 324.044 66.5 324.049 66.5 324.053C66.5 324.057 66.5 324.062 66.5 324.067C66.5 324.072 66.5 324.077 66.5 324.083C66.5 324.088 66.5 324.094 66.5 324.1C66.5 324.106 66.5 324.112 66.5 324.119C66.5 324.125 66.5 324.132 66.5 324.139C66.5 324.146 66.5 324.153 66.5 324.161C66.5 324.169 66.5 324.177 66.5 324.185C66.5 324.193 66.5 324.201 66.5 324.21C66.5 324.218 66.5 324.227 66.5 324.237C66.5 324.246 66.5 324.255 66.5 324.265C66.5 324.275 66.5 324.285 66.5 324.295C66.5 324.305 66.5 324.316 66.5 324.326C66.5 324.337 66.5 324.348 66.5 324.359C66.5 324.371 66.5 324.382 66.5 324.394C66.5 324.406 66.5 324.418 66.5 324.43C66.5 324.442 66.5 324.455 66.5 324.468C66.5 324.48 66.5 324.493 66.5 324.507C66.5 324.52 66.5 324.534 66.5 324.547C66.5 324.561 66.5 324.575 66.5 324.59C66.5 324.604 66.5 324.618 66.5 324.633C66.5 324.648 66.5 324.663 66.5 324.678C66.5 324.694 66.5 324.709 66.5 324.725C66.5 324.741 66.5 324.757 66.5 324.773C66.5 324.79 66.5 324.806 66.5 324.823C66.5 324.84 66.5 324.857 66.5 324.874C66.5 324.892 66.5 324.909 66.5 324.927C66.5 324.945 66.5 324.963 66.5 324.981C66.5 324.999 66.5 325.018 66.5 325.037C66.5 325.055 66.5 325.074 66.5 325.094C66.5 325.113 66.5 325.132 66.5 325.152C66.5 325.172 66.5 325.192 66.5 325.212C66.5 325.232 66.5 325.253 66.5 325.273C66.5 325.294 66.5 325.315 66.5 325.336C66.5 325.357 66.5 325.379 66.5 325.401C66.5 325.422 66.5 325.444 66.5 325.466C66.5 325.488 66.5 325.511 66.5 325.533C66.5 325.556 66.5 325.579 66.5 325.602C66.5 325.625 66.5 325.648 66.5 325.672C66.5 325.695 66.5 325.719 66.5 325.743C66.5 325.767 66.5 325.791 66.5 325.816C66.5 325.84 66.5 325.865 66.5 325.89C66.5 325.915 66.5 325.94 66.5 325.965C66.5 325.991 66.5 326.016 66.5 326.042C66.5 326.068 66.5 326.094 66.5 326.12C66.5 326.146 66.5 326.173 66.5 326.2C66.5 326.226 66.5 326.253 66.5 326.281C66.5 326.308 66.5 326.335 66.5 326.363C66.5 326.391 66.5 326.418 66.5 326.447C66.5 326.475 66.5 326.503 66.5 326.531C66.5 326.56 66.5 326.589 66.5 326.618C66.5 326.647 66.5 326.676 66.5 326.705C66.5 326.735 66.5 326.764 66.5 326.794C66.5 326.824 66.5 326.854 66.5 326.885C66.5 326.915 66.5 326.945 66.5 326.976C66.5 327.007 66.5 327.038 66.5 327.069C66.5 327.1 66.5 327.131 66.5 327.163C66.5 327.195 66.5 327.227 66.5 327.259C66.5 327.291 66.5 327.323 66.5 327.355C66.5 327.388 66.5 327.42 66.5 327.453C66.5 327.486 66.5 327.519 66.5 327.553C66.5 327.586 66.5 327.619 66.5 327.653C66.5 327.687 66.5 327.721 66.5 327.755C66.5 327.789 66.5 327.823 66.5 327.858C66.5 327.893 66.5 327.927 66.5 327.962C66.5 327.997 66.5 328.033 66.5 328.068C66.5 328.103 66.5 328.139 66.5 328.175C66.5 328.211 66.5 328.247 66.5 328.283C66.5 328.319 66.5 328.355 66.5 328.392C66.5 328.429 66.5 328.465 66.5 328.503C66.5 328.54 66.5 328.577 66.5 328.614C66.5 328.652 66.5 328.689 66.5 328.727C66.5 328.765 66.5 328.803 66.5 328.841C66.5 328.879 66.5 328.918 66.5 328.957C66.5 328.995 66.5 329.034 66.5 329.073C66.5 329.112 66.5 329.151 66.5 329.191C66.5 329.23 66.5 329.27 66.5 329.31C66.5 329.349 66.5 329.389 66.5 329.43C66.5 329.47 66.5 329.51 66.5 329.551C66.5 329.591 66.5 329.632 66.5 329.673C66.5 329.714 66.5 329.755 66.5 329.797C66.5 329.838 66.5 329.88 66.5 329.921C66.5 329.963 66.5 330.005 66.5 330.047C66.5 330.089 66.5 330.132 66.5 330.174C66.5 330.217 66.5 330.259 66.5 330.302C66.5 330.345 66.5 330.388 66.5 330.431C66.5 330.475 66.5 330.518 66.5 330.562C66.5 330.605 66.5 330.649 66.5 330.693C66.5 330.737 66.5 330.781 66.5 330.826C66.5 330.87 66.5 330.915 66.5 330.959C66.5 331.004 66.5 331.049 66.5 331.094C66.5 331.139 66.5 331.185 66.5 331.23C66.5 331.276 66.5 331.321 66.5 331.367C66.5 331.413 66.5 331.459 66.5 331.505C66.5 331.551 66.5 331.598 66.5 331.644C66.5 331.691 66.5 331.737 66.5 331.784C66.5 331.831 66.5 331.878 66.5 331.925C66.5 331.973 66.5 332.02 66.5 332.068C66.5 332.115 66.5 332.163 66.5 332.211C66.5 332.259 66.5 332.307 66.5 332.355C66.5 332.404 66.5 332.452 66.5 332.501C66.5 332.549 66.5 332.598 66.5 332.647C66.5 332.696 66.5 332.745 66.5 332.795C66.5 332.844 66.5 332.893 66.5 332.943C66.5 332.993 66.5 333.043 66.5 333.093C66.5 333.143 66.5 333.193 66.5 333.243C66.5 333.293 66.5 333.344 66.5 333.395C66.5 333.445 66.5 333.496 66.5 333.547C66.5 333.598 66.5 333.649 66.5 333.7C66.5 333.752 66.5 333.803 66.5 333.855C66.5 333.907 66.5 333.958 66.5 334.01C66.5 334.062 66.5 334.114 66.5 334.167C66.5 334.219 66.5 334.272 66.5 334.324C66.5 334.377 66.5 334.43 66.5 334.482C66.5 334.535 66.5 334.589 66.5 334.642C66.5 334.695 66.5 334.748 66.5 334.802C66.5 334.856 66.5 334.909 66.5 334.963C66.5 335.017 66.5 335.071 66.5 335.125C66.5 335.179 66.5 335.234 66.5 335.288C66.5 335.343 66.5 335.397 66.5 335.452C66.5 335.507 66.5 335.562 66.5 335.617C66.5 335.672 66.5 335.728 66.5 335.783C66.5 335.838 66.5 335.894 66.5 335.95C66.5 336.005 66.5 336.061 66.5 336.117C66.5 336.173 66.5 336.229 66.5 336.286C66.5 336.342 66.5 336.399 66.5 336.455C66.5 336.512 66.5 336.569 66.5 336.625C66.5 336.682 66.5 336.739 66.5 336.797C66.5 336.854 66.5 336.911 66.5 336.969C66.5 337.026 66.5 337.084 66.5 337.142C66.5 337.199 66.5 337.257 66.5 337.315C66.5 337.373 66.5 337.432 66.5 337.49C66.5 337.548 66.5 337.607 66.5 337.665C66.5 337.724 66.5 337.783 66.5 337.842C66.5 337.901 66.5 337.96 66.5 338.019C66.5 338.078 66.5 338.137 66.5 338.197C66.5 338.256 66.5 338.316 66.5 338.375C66.5 338.435 66.5 338.495 66.5 338.555C66.5 338.615 66.5 338.675 66.5 338.735C66.5 338.796 66.5 338.856 66.5 338.917C66.5 338.977 66.5 339.038 66.5 339.099C66.5 339.16 66.5 339.22 66.5 339.282C66.5 339.343 66.5 339.404 66.5 339.465C66.5 339.526 66.5 339.588 66.5 339.65C66.5 339.711 66.5 339.773 66.5 339.835C66.5 339.896 66.5 339.958 66.5 340.021C66.5 340.083 66.5 340.145 66.5 340.207C66.5 340.27 66.5 340.332 66.5 340.395C66.5 340.457 66.5 340.52 66.5 340.583C66.5 340.646 66.5 340.709 66.5 340.772C66.5 340.835 66.5 340.898 66.5 340.962C66.5 341.025 66.5 341.088 66.5 341.152C66.5 341.216 66.5 341.279 66.5 341.343C66.5 341.407 66.5 341.471 66.5 341.535C66.5 341.599 66.5 341.663 66.5 341.728C66.5 341.792 66.5 341.856 66.5 341.921C66.5 341.985 66.5 342.05 66.5 342.115C66.5 342.18 66.5 342.245 66.5 342.31C66.5 342.375 66.5 342.44 66.5 342.505C66.5 342.57 66.5 342.636 66.5 342.701C66.5 342.767 66.5 342.832 66.5 342.898C66.5 342.964 66.5 343.029 66.5 343.095C66.5 343.161 66.5 343.227 66.5 343.293C66.5 343.36 66.5 343.426 66.5 343.492C66.5 343.559 66.5 343.625 66.5 343.692C66.5 343.758 66.5 343.825 66.5 343.892C66.5 343.959 66.5 344.026 66.5 344.093C66.5 344.16 66.5 344.227 66.5 344.294C66.5 344.361 66.5 344.428 66.5 344.496C66.5 344.563 66.5 344.631 66.5 344.699C66.5 344.766 66.5 344.834 66.5 344.902C66.5 344.97 66.5 345.038 66.5 345.106C66.5 345.174 66.5 345.242 66.5 345.31C66.5 345.378 66.5 345.447 66.5 345.515C66.5 345.584 66.5 345.652 66.5 345.721C66.5 345.79 66.5 345.858 66.5 345.927C66.5 345.996 66.5 346.065 66.5 346.134C66.5 346.203 66.5 346.272 66.5 346.342C66.5 346.411 66.5 346.48 66.5 346.55C66.5 346.619 66.5 346.689 66.5 346.758C66.5 346.828 66.5 346.898 66.5 346.967C66.5 347.037 66.5 347.107 66.5 347.177C66.5 347.247 66.5 347.317 66.5 347.387C66.5 347.458 66.5 347.528 66.5 347.598C66.5 347.669 66.5 347.739 66.5 347.81C66.5 347.88 66.5 347.951 66.5 348.021C66.5 348.092 66.5 348.163 66.5 348.234C66.5 348.305 66.5 348.376 66.5 348.447C66.5 348.518 66.5 348.589 66.5 348.66C66.5 348.732 66.5 348.803 66.5 348.874C66.5 348.946 66.5 349.017 66.5 349.089C66.5 349.16 66.5 349.232 66.5 349.304C66.5 349.375 66.5 349.447 66.5 349.519C66.5 349.591 66.5 349.663 66.5 349.735C66.5 349.807 66.5 349.879 66.5 349.952C66.5 350.024 66.5 350.096 66.5 350.168C66.5 350.241 66.5 350.313 66.5 350.386C66.5 350.458 66.5 350.531 66.5 350.604C66.5 350.676 66.5 350.749 66.5 350.822C66.5 350.895 66.5 350.968 66.5 351.041C66.5 351.114 66.5 351.187 66.5 351.26C66.5 351.333 66.5 351.406 66.5 351.479C66.5 351.553 66.5 351.626 66.5 351.699C66.5 351.773 66.5 351.846 66.5 351.92C66.5 351.994 66.5 352.067 66.5 352.141C66.5 352.215 66.5 352.288 66.5 352.362C66.5 352.436 66.5 352.51 66.5 352.584C66.5 352.658 66.5 352.732 66.5 352.806C66.5 352.88 66.5 352.954 66.5 353.029C66.5 353.103 66.5 353.177 66.5 353.251C66.5 353.326 66.5 353.4 66.5 353.475C66.5 353.549 66.5 353.624 66.5 353.698C66.5 353.773 66.5 353.848 66.5 353.923C66.5 353.997 66.5 354.072 66.5 354.147C66.5 354.222 66.5 354.297 66.5 354.372C66.5 354.447 66.5 354.522 66.5 354.597C66.5 354.672 66.5 354.747 66.5 354.822C66.5 354.898 66.5 354.973 66.5 355.048C66.5 355.124 66.5 355.199 66.5 355.274C66.5 355.35 66.5 355.425 66.5 355.501C66.5 355.576 66.5 355.652 66.5 355.728C66.5 355.803 66.5 355.879 66.5 355.955C66.5 356.031 66.5 356.106 66.5 356.182C66.5 356.258 66.5 356.334 66.5 356.41C66.5 356.486 66.5 356.562 66.5 356.638C66.5 356.714 66.5 356.79 66.5 356.867C66.5 356.943 66.5 357.019 66.5 357.095C66.5 357.172 66.5 357.248 66.5 357.324C66.5 357.401 66.5 357.477 66.5 357.553C66.5 357.63 66.5 357.706 66.5 357.783C66.5 357.859 66.5 357.936 66.5 358.013C66.5 358.089 66.5 358.166 66.5 358.243C66.5 358.319 66.5 358.396 66.5 358.473C66.5 358.55 66.5 358.627 66.5 358.704C66.5 358.78 66.5 358.857 66.5 358.934C66.5 359.011 66.5 359.088 66.5 359.165C66.5 359.242 66.5 359.319 66.5 359.397C66.5 359.474 66.5 359.551 66.5 359.628C66.5 359.705 66.5 359.783 66.5 359.86C66.5 359.937 66.5 360.014 66.5 360.092C66.5 360.169 66.5 360.246 66.5 360.324C66.5 360.401 66.5 360.479 66.5 360.556C66.5 360.634 66.5 360.711 66.5 360.789C66.5 360.866 66.5 360.944 66.5 361.021C66.5 361.099 66.5 361.177 66.5 361.254C66.5 361.332 66.5 361.41 66.5 361.487C66.5 361.565 66.5 361.643 66.5 361.721C66.5 361.798 66.5 361.876 66.5 361.954C66.5 362.032 66.5 362.11 66.5 362.188C66.5 362.265 66.5 362.343 66.5 362.421C66.5 362.499 66.5 362.577 66.5 362.655C66.5 362.733 66.5 362.811 66.5 362.889C66.5 362.967 66.5 363.045 66.5 363.123C66.5 363.201 66.5 363.279 66.5 363.358C66.5 363.436 66.5 363.514 66.5 363.592C66.5 363.67 66.5 363.748 66.5 363.826C66.5 363.905 66.5 363.983 66.5 364.061C66.5 364.139 66.5 364.218 66.5 364.296C66.5 364.374 66.5 364.452 66.5 364.531C66.5 364.609 66.5 364.687 66.5 364.766C66.5 364.844 66.5 364.922 66.5 365.001C66.5 365.079 66.5 365.157 66.5 365.236C66.5 365.314 66.5 365.393 66.5 365.471C66.5 365.549 66.5 365.628 66.5 365.706C66.5 365.785 66.5 365.863 66.5 365.942C66.5 366.02 66.5 366.098 66.5 366.177C66.5 366.255 66.5 366.334 66.5 366.412C66.5 366.491 66.5 366.569 66.5 366.648C66.5 366.726 66.5 366.805 66.5 366.883C66.5 366.962 66.5 367.04 66.5 367.119C66.5 367.197 66.5 367.276 66.5 367.355C66.5 367.433 66.5 367.512 66.5 367.59C66.5 367.669 66.5 367.747 66.5 367.826C66.5 367.904 66.5 367.983 66.5 368.061C66.5 368.14 66.5 368.219 66.5 368.297C66.5 368.376 66.5 368.454 66.5 368.533C66.5 368.611 66.5 368.69 66.5 368.768C66.5 368.847 66.5 368.925 66.5 369.004C66.5 369.083 66.5 369.161 66.5 369.24C66.5 369.318 66.5 369.397 66.5 369.475C66.5 369.554 66.5 369.632 66.5 369.711C66.5 369.789 66.5 369.868 66.5 369.946C66.5 370.025 66.5 370.103 66.5 370.182C66.5 370.26 66.5 370.339 66.5 370.417C66.5 370.496 66.5 370.574 66.5 370.653C66.5 370.731 66.5 370.81 66.5 370.888C66.5 370.966 66.5 371.045 66.5 371.123C66.5 371.202 66.5 371.28 66.5 371.358C66.5 371.437 66.5 371.515 66.5 371.594C66.5 371.672 66.5 371.75 66.5 371.829C66.5 371.907 66.5 371.985 66.5 372.064C66.5 372.142 66.5 372.22 66.5 372.298C66.5 372.377 66.5 372.455 66.5 372.533C66.5 372.611 66.5 372.69 66.5 372.768C66.5 372.846 66.5 372.924 66.5 373.002C66.5 373.081 66.5 373.159 66.5 373.237C66.5 373.315 66.5 373.393 66.5 373.471C66.5 373.549 66.5 373.627 66.5 373.705C66.5 373.783 66.5 373.861 66.5 373.939C66.5 374.017 66.5 374.095 66.5 374.173C66.5 374.251 66.5 374.329 66.5 374.407C66.5 374.485 66.5 374.563 66.5 374.641C66.5 374.718 66.5 374.796 66.5 374.874C66.5 374.952 66.5 375.03 66.5 375.107C66.5 375.185 66.5 375.263 66.5 375.34C66.5 375.418 66.5 375.496 66.5 375.573C66.5 375.651 66.5 375.728 66.5 375.806C66.5 375.884 66.5 375.961 66.5 376.039C66.5 376.116 66.5 376.193 66.5 376.271C66.5 376.348 66.5 376.426 66.5 376.503C66.5 376.58 66.5 376.658 66.5 376.735C66.5 376.812 66.5 376.89 66.5 376.967C66.5 377.044 66.5 377.121 66.5 377.198C66.5 377.275 66.5 377.352 66.5 377.43C66.5 377.507 66.5 377.584 66.5 377.661C66.5 377.738 66.5 377.815 66.5 377.891C66.5 377.968 66.5 378.045 66.5 378.122C66.5 378.199 66.5 378.276 66.5 378.352C66.5 378.429 66.5 378.506 66.5 378.582C66.5 378.659 66.5 378.736 66.5 378.812C66.5 378.889 66.5 378.965 66.5 379.042C66.5 379.118 66.5 379.195 66.5 379.271C66.5 379.347 66.5 379.424 66.5 379.5C66.5 379.576 66.5 379.653 66.5 379.729C66.5 379.805 66.5 379.881 66.5 379.957C66.5 380.033 66.5 380.109 66.5 380.185C66.5 380.261 66.5 380.337 66.5 380.413C66.5 380.489 66.5 380.565 66.5 380.641C66.5 380.716 66.5 380.792 66.5 380.868C66.5 380.944 66.5 381.019 66.5 381.095C66.5 381.17 66.5 381.246 66.5 381.321C66.5 381.397 66.5 381.472 66.5 381.548C66.5 381.623 66.5 381.698 66.5 381.773C66.5 381.849 66.5 381.924 66.5 381.999C66.5 382.074 66.5 382.149 66.5 382.224C66.5 382.299 66.5 382.374 66.5 382.449C66.5 382.524 66.5 382.599 66.5 382.673C66.5 382.748 66.5 382.823 66.5 382.898C66.5 382.972 66.5 383.047 66.5 383.121C66.5 383.196 66.5 383.27 66.5 383.345C66.5 383.419 66.5 383.493 66.5 383.568C66.5 383.642 66.5 383.716 66.5 383.79C66.5 383.864 66.5 383.939 66.5 384.013C66.5 384.087 66.5 384.16 66.5 384.234C66.5 384.308 66.5 384.382 66.5 384.456C66.5 384.529 66.5 384.603 66.5 384.677C66.5 384.75 66.5 384.824 66.5 384.897C66.5 384.971 66.5 385.044 66.5 385.117C66.5 385.191 66.5 385.264 66.5 385.337C66.5 385.41 66.5 385.483 66.5 385.556C66.5 385.629 66.5 385.702 66.5 385.775C66.5 385.848 66.5 385.921 66.5 385.993C66.5 386.066 66.5 386.139 66.5 386.211C66.5 386.284 66.5 386.356 66.5 386.429C66.5 386.501 66.5 386.574 66.5 386.646C66.5 386.718 66.5 386.79 66.5 386.862C66.5 386.934 66.5 387.006 66.5 387.078C66.5 387.15 66.5 387.222 66.5 387.294C66.5 387.366 66.5 387.437 66.5 387.509C66.5 387.581 66.5 387.652 66.5 387.723C66.5 387.795 66.5 387.866 66.5 387.938C66.5 388.009 66.5 388.08 66.5 388.151C66.5 388.222 66.5 388.293 66.5 388.364C66.5 388.435 66.5 388.506 66.5 388.577C66.5 388.647 66.5 388.718 66.5 388.789C66.5 388.859 66.5 388.93 66.5 389C66.5 389.07 66.5 389.141 66.5 389.211C66.5 389.281 66.5 389.351 66.5 389.421C66.5 389.491 66.5 389.561 66.5 389.631C66.5 389.701 66.5 389.771 66.5 389.84C66.5 389.91 66.5 389.98 66.5 390.049C66.5 390.118 66.5 390.188 66.5 390.257C66.5 390.326 66.5 390.396 66.5 390.465C66.5 390.534 66.5 390.603 66.5 390.672C66.5 390.741 66.5 390.809 66.5 390.878C66.5 390.947 66.5 391.015 66.5 391.084C66.5 391.152 66.5 391.221 66.5 391.289C66.5 391.357 66.5 391.426 66.5 391.494C66.5 391.562 66.5 391.63 66.5 391.698C66.5 391.766 66.5 391.833 66.5 391.901C66.5 391.969 66.5 392.036 66.5 392.104C66.5 392.171 66.5 392.239 66.5 392.306C66.5 392.373 66.5 392.44 66.5 392.507C66.5 392.574 66.5 392.641 66.5 392.708C66.5 392.775 66.5 392.842 66.5 392.908C66.5 392.975 66.5 393.042 66.5 393.108C66.5 393.174 66.5 393.241 66.5 393.307C66.5 393.373 66.5 393.439 66.5 393.505C66.5 393.571 66.5 393.637 66.5 393.703C66.5 393.768 66.5 393.834 66.5 393.9C66.5 393.965 66.5 394.03 66.5 394.096C66.5 394.161 66.5 394.226 66.5 394.291C66.5 394.356 66.5 394.421 66.5 394.486C66.5 394.551 66.5 394.616 66.5 394.68C66.5 394.745 66.5 394.809 66.5 394.874C66.5 394.938 66.5 395.002 66.5 395.066C66.5 395.13 66.5 395.194 66.5 395.258C66.5 395.322 66.5 395.386 66.5 395.45C66.5 395.513 66.5 395.577 66.5 395.64C66.5 395.704 66.5 395.767 66.5 395.83C66.5 395.893 66.5 395.956 66.5 396.019C66.5 396.082 66.5 396.145 66.5 396.207C66.5 396.27 66.5 396.333 66.5 396.395C66.5 396.457 66.5 396.52 66.5 396.582C66.5 396.644 66.5 396.706 66.5 396.768C66.5 396.83 66.5 396.891 66.5 396.953C66.5 397.015 66.5 397.076 66.5 397.138C66.5 397.199 66.5 397.26 66.5 397.321C66.5 397.382 66.5 397.443 66.5 397.504C66.5 397.565 66.5 397.626 66.5 397.686C66.5 397.747 66.5 397.807 66.5 397.868C66.5 397.928 66.5 397.988 66.5 398.048C66.5 398.108 66.5 398.168 66.5 398.228C66.5 398.288 66.5 398.347 66.5 398.407C66.5 398.466 66.5 398.526 66.5 398.585C66.5 398.644 66.5 398.703 66.5 398.762C66.5 398.821 66.5 398.88 66.5 398.939C66.5 398.997 66.5 399.056 66.5 399.114C66.5 399.173 66.5 399.231 66.5 399.289C66.5 399.347 66.5 399.405 66.5 399.463C66.5 399.521 66.5 399.578 66.5 399.636C66.5 399.694 66.5 399.751 66.5 399.808C66.5 399.865 66.5 399.923 66.5 399.979C66.5 400.036 66.5 400.093 66.5 400.15C66.5 400.207 66.5 400.263 66.5 400.319C66.5 400.376 66.5 400.432 66.5 400.488C66.5 400.544 66.5 400.6 66.5 400.656C66.5 400.712 66.5 400.767 66.5 400.823C66.5 400.878 66.5 400.933 66.5 400.989C66.5 401.044 66.5 401.099 66.5 401.154C66.5 401.209 66.5 401.263 66.5 401.318C66.5 401.372 66.5 401.427 66.5 401.481C66.5 401.535 66.5 401.589 66.5 401.643C66.5 401.697 66.5 401.751 66.5 401.805C66.5 401.858 66.5 401.912 66.5 401.965C66.5 402.018 66.5 402.071 66.5 402.124C66.5 402.177 66.5 402.23 66.5 402.283C66.5 402.336 66.5 402.388 66.5 402.44C66.5 402.493 66.5 402.545 66.5 402.597C66.5 402.649 66.5 402.701 66.5 402.753C66.5 402.804 66.5 402.856 66.5 402.907C66.5 402.959 66.5 403.01 66.5 403.061C66.5 403.112 66.5 403.163 66.5 403.214C66.5 403.264 66.5 403.315 66.5 403.365C66.5 403.416 66.5 403.466 66.5 403.516C66.5 403.566 66.5 403.616 66.5 403.665C66.5 403.715 66.5 403.765 66.5 403.814C66.5 403.863 66.5 403.913 66.5 403.962C66.5 404.011 66.5 404.06 66.5 404.108C66.5 404.157 66.5 404.206 66.5 404.254C66.5 404.302 66.5 404.35 66.5 404.398C66.5 404.446 66.5 404.494 66.5 404.542C66.5 404.59 66.5 404.637 66.5 404.684C66.5 404.732 66.5 404.779 66.5 404.826C66.5 404.873 66.5 404.919 66.5 404.966C66.5 405.013 66.5 405.059 66.5 405.105C66.5 405.152 66.5 405.198 66.5 405.243C66.5 405.289 66.5 405.335 66.5 405.381C66.5 405.426 66.5 405.471 66.5 405.517C66.5 405.562 66.5 405.607 66.5 405.652C66.5 405.696 66.5 405.741 66.5 405.785C66.5 405.83 66.5 405.874 66.5 405.918C66.5 405.962 66.5 406.006 66.5 406.05C66.5 406.093 66.5 406.137 66.5 406.18C66.5 406.224 66.5 406.267 66.5 406.31C66.5 406.353 66.5 406.395 66.5 406.438C66.5 406.48 66.5 406.523 66.5 406.565C66.5 406.607 66.5 406.649 66.5 406.691C66.5 406.733 66.5 406.775 66.5 406.816C66.5 406.857 66.5 406.899 66.5 406.94C66.5 406.981 66.5 407.022 66.5 407.062C66.5 407.103 66.5 407.143 66.5 407.184C66.5 407.224 66.5 407.264 66.5 407.304C66.5 407.344 66.5 407.383 66.5 407.423C66.5 407.462 66.5 407.502 66.5 407.541C66.5 407.58 66.5 407.619 66.5 407.657C66.5 407.696 66.5 407.735 66.5 407.773C66.5 407.811 66.5 407.849 66.5 407.887C66.5 407.925 66.5 407.963 66.5 408C66.5 408.038 66.5 408.075 66.5 408.112C66.5 408.149 66.5 408.186 66.5 408.223C66.5 408.26 66.5 408.296 66.5 408.332C66.5 408.369 66.5 408.405 66.5 408.441C66.5 408.477 66.5 408.512 66.5 408.548C66.5 408.583 66.5 408.618 66.5 408.654C66.5 408.689 66.5 408.723 66.5 408.758C66.5 408.793 66.5 408.827 66.5 408.861C66.5 408.896 66.5 408.93 66.5 408.963C66.5 408.997 66.5 409.031 66.5 409.064C66.5 409.097 66.5 409.131 66.5 409.164C66.5 409.197 66.5 409.229 66.5 409.262C66.5 409.294 66.5 409.327 66.5 409.359C66.5 409.391 66.5 409.423 66.5 409.454C66.5 409.486 66.5 409.518 66.5 409.549C66.5 409.58 66.5 409.611 66.5 409.642C66.5 409.673 66.5 409.703 66.5 409.734C66.5 409.764 66.5 409.794 66.5 409.824C66.5 409.854 66.5 409.884 66.5 409.913C66.5 409.943 66.5 409.972 66.5 410.001C66.5 410.03 66.5 410.059 66.5 410.088C66.5 410.116 66.5 410.145 66.5 410.173C66.5 410.201 66.5 410.229 66.5 410.257C66.5 410.284 66.5 410.312 66.5 410.339C66.5 410.366 66.5 410.393 66.5 410.42C66.5 410.447 66.5 410.474 66.5 410.5H81.5C81.5 410.474 81.5 410.447 81.5 410.42C81.5 410.393 81.5 410.366 81.5 410.339C81.5 410.312 81.5 410.284 81.5 410.257C81.5 410.229 81.5 410.201 81.5 410.173C81.5 410.145 81.5 410.116 81.5 410.088C81.5 410.059 81.5 410.03 81.5 410.001C81.5 409.972 81.5 409.943 81.5 409.913C81.5 409.884 81.5 409.854 81.5 409.824C81.5 409.794 81.5 409.764 81.5 409.734C81.5 409.703 81.5 409.673 81.5 409.642C81.5 409.611 81.5 409.58 81.5 409.549C81.5 409.518 81.5 409.486 81.5 409.454C81.5 409.423 81.5 409.391 81.5 409.359C81.5 409.327 81.5 409.294 81.5 409.262C81.5 409.229 81.5 409.197 81.5 409.164C81.5 409.131 81.5 409.097 81.5 409.064C81.5 409.031 81.5 408.997 81.5 408.963C81.5 408.93 81.5 408.896 81.5 408.861C81.5 408.827 81.5 408.793 81.5 408.758C81.5 408.723 81.5 408.689 81.5 408.654C81.5 408.618 81.5 408.583 81.5 408.548C81.5 408.512 81.5 408.477 81.5 408.441C81.5 408.405 81.5 408.369 81.5 408.332C81.5 408.296 81.5 408.26 81.5 408.223C81.5 408.186 81.5 408.149 81.5 408.112C81.5 408.075 81.5 408.038 81.5 408C81.5 407.963 81.5 407.925 81.5 407.887C81.5 407.849 81.5 407.811 81.5 407.773C81.5 407.735 81.5 407.696 81.5 407.657C81.5 407.619 81.5 407.58 81.5 407.541C81.5 407.502 81.5 407.462 81.5 407.423C81.5 407.383 81.5 407.344 81.5 407.304C81.5 407.264 81.5 407.224 81.5 407.184C81.5 407.143 81.5 407.103 81.5 407.062C81.5 407.022 81.5 406.981 81.5 406.94C81.5 406.899 81.5 406.857 81.5 406.816C81.5 406.775 81.5 406.733 81.5 406.691C81.5 406.649 81.5 406.607 81.5 406.565C81.5 406.523 81.5 406.48 81.5 406.438C81.5 406.395 81.5 406.353 81.5 406.31C81.5 406.267 81.5 406.224 81.5 406.18C81.5 406.137 81.5 406.093 81.5 406.05C81.5 406.006 81.5 405.962 81.5 405.918C81.5 405.874 81.5 405.83 81.5 405.785C81.5 405.741 81.5 405.696 81.5 405.652C81.5 405.607 81.5 405.562 81.5 405.517C81.5 405.471 81.5 405.426 81.5 405.381C81.5 405.335 81.5 405.289 81.5 405.243C81.5 405.198 81.5 405.152 81.5 405.105C81.5 405.059 81.5 405.013 81.5 404.966C81.5 404.919 81.5 404.873 81.5 404.826C81.5 404.779 81.5 404.732 81.5 404.684C81.5 404.637 81.5 404.59 81.5 404.542C81.5 404.494 81.5 404.446 81.5 404.398C81.5 404.35 81.5 404.302 81.5 404.254C81.5 404.206 81.5 404.157 81.5 404.108C81.5 404.06 81.5 404.011 81.5 403.962C81.5 403.913 81.5 403.863 81.5 403.814C81.5 403.765 81.5 403.715 81.5 403.665C81.5 403.616 81.5 403.566 81.5 403.516C81.5 403.466 81.5 403.416 81.5 403.365C81.5 403.315 81.5 403.264 81.5 403.214C81.5 403.163 81.5 403.112 81.5 403.061C81.5 403.01 81.5 402.959 81.5 402.907C81.5 402.856 81.5 402.804 81.5 402.753C81.5 402.701 81.5 402.649 81.5 402.597C81.5 402.545 81.5 402.493 81.5 402.44C81.5 402.388 81.5 402.336 81.5 402.283C81.5 402.23 81.5 402.177 81.5 402.124C81.5 402.071 81.5 402.018 81.5 401.965C81.5 401.912 81.5 401.858 81.5 401.805C81.5 401.751 81.5 401.697 81.5 401.643C81.5 401.589 81.5 401.535 81.5 401.481C81.5 401.427 81.5 401.372 81.5 401.318C81.5 401.263 81.5 401.209 81.5 401.154C81.5 401.099 81.5 401.044 81.5 400.989C81.5 400.933 81.5 400.878 81.5 400.823C81.5 400.767 81.5 400.712 81.5 400.656C81.5 400.6 81.5 400.544 81.5 400.488C81.5 400.432 81.5 400.376 81.5 400.319C81.5 400.263 81.5 400.207 81.5 400.15C81.5 400.093 81.5 400.036 81.5 399.979C81.5 399.923 81.5 399.865 81.5 399.808C81.5 399.751 81.5 399.694 81.5 399.636C81.5 399.578 81.5 399.521 81.5 399.463C81.5 399.405 81.5 399.347 81.5 399.289C81.5 399.231 81.5 399.173 81.5 399.114C81.5 399.056 81.5 398.997 81.5 398.939C81.5 398.88 81.5 398.821 81.5 398.762C81.5 398.703 81.5 398.644 81.5 398.585C81.5 398.526 81.5 398.466 81.5 398.407C81.5 398.347 81.5 398.288 81.5 398.228C81.5 398.168 81.5 398.108 81.5 398.048C81.5 397.988 81.5 397.928 81.5 397.868C81.5 397.807 81.5 397.747 81.5 397.686C81.5 397.626 81.5 397.565 81.5 397.504C81.5 397.443 81.5 397.382 81.5 397.321C81.5 397.26 81.5 397.199 81.5 397.138C81.5 397.076 81.5 397.015 81.5 396.953C81.5 396.891 81.5 396.83 81.5 396.768C81.5 396.706 81.5 396.644 81.5 396.582C81.5 396.52 81.5 396.457 81.5 396.395C81.5 396.333 81.5 396.27 81.5 396.207C81.5 396.145 81.5 396.082 81.5 396.019C81.5 395.956 81.5 395.893 81.5 395.83C81.5 395.767 81.5 395.704 81.5 395.64C81.5 395.577 81.5 395.513 81.5 395.45C81.5 395.386 81.5 395.322 81.5 395.258C81.5 395.194 81.5 395.13 81.5 395.066C81.5 395.002 81.5 394.938 81.5 394.874C81.5 394.809 81.5 394.745 81.5 394.68C81.5 394.616 81.5 394.551 81.5 394.486C81.5 394.421 81.5 394.356 81.5 394.291C81.5 394.226 81.5 394.161 81.5 394.096C81.5 394.03 81.5 393.965 81.5 393.9C81.5 393.834 81.5 393.768 81.5 393.703C81.5 393.637 81.5 393.571 81.5 393.505C81.5 393.439 81.5 393.373 81.5 393.307C81.5 393.241 81.5 393.174 81.5 393.108C81.5 393.042 81.5 392.975 81.5 392.908C81.5 392.842 81.5 392.775 81.5 392.708C81.5 392.641 81.5 392.574 81.5 392.507C81.5 392.44 81.5 392.373 81.5 392.306C81.5 392.239 81.5 392.171 81.5 392.104C81.5 392.036 81.5 391.969 81.5 391.901C81.5 391.833 81.5 391.766 81.5 391.698C81.5 391.63 81.5 391.562 81.5 391.494C81.5 391.426 81.5 391.357 81.5 391.289C81.5 391.221 81.5 391.152 81.5 391.084C81.5 391.015 81.5 390.947 81.5 390.878C81.5 390.809 81.5 390.741 81.5 390.672C81.5 390.603 81.5 390.534 81.5 390.465C81.5 390.396 81.5 390.326 81.5 390.257C81.5 390.188 81.5 390.118 81.5 390.049C81.5 389.98 81.5 389.91 81.5 389.84C81.5 389.771 81.5 389.701 81.5 389.631C81.5 389.561 81.5 389.491 81.5 389.421C81.5 389.351 81.5 389.281 81.5 389.211C81.5 389.141 81.5 389.07 81.5 389C81.5 388.93 81.5 388.859 81.5 388.789C81.5 388.718 81.5 388.647 81.5 388.577C81.5 388.506 81.5 388.435 81.5 388.364C81.5 388.293 81.5 388.222 81.5 388.151C81.5 388.08 81.5 388.009 81.5 387.938C81.5 387.866 81.5 387.795 81.5 387.723C81.5 387.652 81.5 387.581 81.5 387.509C81.5 387.437 81.5 387.366 81.5 387.294C81.5 387.222 81.5 387.15 81.5 387.078C81.5 387.006 81.5 386.934 81.5 386.862C81.5 386.79 81.5 386.718 81.5 386.646C81.5 386.574 81.5 386.501 81.5 386.429C81.5 386.356 81.5 386.284 81.5 386.211C81.5 386.139 81.5 386.066 81.5 385.993C81.5 385.921 81.5 385.848 81.5 385.775C81.5 385.702 81.5 385.629 81.5 385.556C81.5 385.483 81.5 385.41 81.5 385.337C81.5 385.264 81.5 385.191 81.5 385.117C81.5 385.044 81.5 384.971 81.5 384.897C81.5 384.824 81.5 384.75 81.5 384.677C81.5 384.603 81.5 384.529 81.5 384.456C81.5 384.382 81.5 384.308 81.5 384.234C81.5 384.16 81.5 384.087 81.5 384.013C81.5 383.939 81.5 383.864 81.5 383.79C81.5 383.716 81.5 383.642 81.5 383.568C81.5 383.493 81.5 383.419 81.5 383.345C81.5 383.27 81.5 383.196 81.5 383.121C81.5 383.047 81.5 382.972 81.5 382.898C81.5 382.823 81.5 382.748 81.5 382.673C81.5 382.599 81.5 382.524 81.5 382.449C81.5 382.374 81.5 382.299 81.5 382.224C81.5 382.149 81.5 382.074 81.5 381.999C81.5 381.924 81.5 381.849 81.5 381.773C81.5 381.698 81.5 381.623 81.5 381.548C81.5 381.472 81.5 381.397 81.5 381.321C81.5 381.246 81.5 381.17 81.5 381.095C81.5 381.019 81.5 380.944 81.5 380.868C81.5 380.792 81.5 380.716 81.5 380.641C81.5 380.565 81.5 380.489 81.5 380.413C81.5 380.337 81.5 380.261 81.5 380.185C81.5 380.109 81.5 380.033 81.5 379.957C81.5 379.881 81.5 379.805 81.5 379.729C81.5 379.653 81.5 379.576 81.5 379.5C81.5 379.424 81.5 379.347 81.5 379.271C81.5 379.195 81.5 379.118 81.5 379.042C81.5 378.965 81.5 378.889 81.5 378.812C81.5 378.736 81.5 378.659 81.5 378.582C81.5 378.506 81.5 378.429 81.5 378.352C81.5 378.276 81.5 378.199 81.5 378.122C81.5 378.045 81.5 377.968 81.5 377.891C81.5 377.815 81.5 377.738 81.5 377.661C81.5 377.584 81.5 377.507 81.5 377.43C81.5 377.352 81.5 377.275 81.5 377.198C81.5 377.121 81.5 377.044 81.5 376.967C81.5 376.89 81.5 376.812 81.5 376.735C81.5 376.658 81.5 376.58 81.5 376.503C81.5 376.426 81.5 376.348 81.5 376.271C81.5 376.193 81.5 376.116 81.5 376.039C81.5 375.961 81.5 375.884 81.5 375.806C81.5 375.728 81.5 375.651 81.5 375.573C81.5 375.496 81.5 375.418 81.5 375.34C81.5 375.263 81.5 375.185 81.5 375.107C81.5 375.03 81.5 374.952 81.5 374.874C81.5 374.796 81.5 374.718 81.5 374.641C81.5 374.563 81.5 374.485 81.5 374.407C81.5 374.329 81.5 374.251 81.5 374.173C81.5 374.095 81.5 374.017 81.5 373.939C81.5 373.861 81.5 373.783 81.5 373.705C81.5 373.627 81.5 373.549 81.5 373.471C81.5 373.393 81.5 373.315 81.5 373.237C81.5 373.159 81.5 373.081 81.5 373.002C81.5 372.924 81.5 372.846 81.5 372.768C81.5 372.69 81.5 372.611 81.5 372.533C81.5 372.455 81.5 372.377 81.5 372.298C81.5 372.22 81.5 372.142 81.5 372.064C81.5 371.985 81.5 371.907 81.5 371.829C81.5 371.75 81.5 371.672 81.5 371.594C81.5 371.515 81.5 371.437 81.5 371.358C81.5 371.28 81.5 371.202 81.5 371.123C81.5 371.045 81.5 370.966 81.5 370.888C81.5 370.81 81.5 370.731 81.5 370.653C81.5 370.574 81.5 370.496 81.5 370.417C81.5 370.339 81.5 370.26 81.5 370.182C81.5 370.103 81.5 370.025 81.5 369.946C81.5 369.868 81.5 369.789 81.5 369.711C81.5 369.632 81.5 369.554 81.5 369.475C81.5 369.397 81.5 369.318 81.5 369.24C81.5 369.161 81.5 369.083 81.5 369.004C81.5 368.925 81.5 368.847 81.5 368.768C81.5 368.69 81.5 368.611 81.5 368.533C81.5 368.454 81.5 368.376 81.5 368.297C81.5 368.219 81.5 368.14 81.5 368.061C81.5 367.983 81.5 367.904 81.5 367.826C81.5 367.747 81.5 367.669 81.5 367.59C81.5 367.512 81.5 367.433 81.5 367.355C81.5 367.276 81.5 367.197 81.5 367.119C81.5 367.04 81.5 366.962 81.5 366.883C81.5 366.805 81.5 366.726 81.5 366.648C81.5 366.569 81.5 366.491 81.5 366.412C81.5 366.334 81.5 366.255 81.5 366.177C81.5 366.098 81.5 366.02 81.5 365.942C81.5 365.863 81.5 365.785 81.5 365.706C81.5 365.628 81.5 365.549 81.5 365.471C81.5 365.393 81.5 365.314 81.5 365.236C81.5 365.157 81.5 365.079 81.5 365.001C81.5 364.922 81.5 364.844 81.5 364.766C81.5 364.687 81.5 364.609 81.5 364.531C81.5 364.452 81.5 364.374 81.5 364.296C81.5 364.218 81.5 364.139 81.5 364.061C81.5 363.983 81.5 363.905 81.5 363.826C81.5 363.748 81.5 363.67 81.5 363.592C81.5 363.514 81.5 363.436 81.5 363.358C81.5 363.279 81.5 363.201 81.5 363.123C81.5 363.045 81.5 362.967 81.5 362.889C81.5 362.811 81.5 362.733 81.5 362.655C81.5 362.577 81.5 362.499 81.5 362.421C81.5 362.343 81.5 362.265 81.5 362.188C81.5 362.11 81.5 362.032 81.5 361.954C81.5 361.876 81.5 361.798 81.5 361.721C81.5 361.643 81.5 361.565 81.5 361.487C81.5 361.41 81.5 361.332 81.5 361.254C81.5 361.177 81.5 361.099 81.5 361.021C81.5 360.944 81.5 360.866 81.5 360.789C81.5 360.711 81.5 360.634 81.5 360.556C81.5 360.479 81.5 360.401 81.5 360.324C81.5 360.246 81.5 360.169 81.5 360.092C81.5 360.014 81.5 359.937 81.5 359.86C81.5 359.783 81.5 359.705 81.5 359.628C81.5 359.551 81.5 359.474 81.5 359.397C81.5 359.319 81.5 359.242 81.5 359.165C81.5 359.088 81.5 359.011 81.5 358.934C81.5 358.857 81.5 358.78 81.5 358.704C81.5 358.627 81.5 358.55 81.5 358.473C81.5 358.396 81.5 358.319 81.5 358.243C81.5 358.166 81.5 358.089 81.5 358.013C81.5 357.936 81.5 357.859 81.5 357.783C81.5 357.706 81.5 357.63 81.5 357.553C81.5 357.477 81.5 357.401 81.5 357.324C81.5 357.248 81.5 357.172 81.5 357.095C81.5 357.019 81.5 356.943 81.5 356.867C81.5 356.79 81.5 356.714 81.5 356.638C81.5 356.562 81.5 356.486 81.5 356.41C81.5 356.334 81.5 356.258 81.5 356.182C81.5 356.106 81.5 356.031 81.5 355.955C81.5 355.879 81.5 355.803 81.5 355.728C81.5 355.652 81.5 355.576 81.5 355.501C81.5 355.425 81.5 355.35 81.5 355.274C81.5 355.199 81.5 355.124 81.5 355.048C81.5 354.973 81.5 354.898 81.5 354.822C81.5 354.747 81.5 354.672 81.5 354.597C81.5 354.522 81.5 354.447 81.5 354.372C81.5 354.297 81.5 354.222 81.5 354.147C81.5 354.072 81.5 353.997 81.5 353.923C81.5 353.848 81.5 353.773 81.5 353.698C81.5 353.624 81.5 353.549 81.5 353.475C81.5 353.4 81.5 353.326 81.5 353.251C81.5 353.177 81.5 353.103 81.5 353.029C81.5 352.954 81.5 352.88 81.5 352.806C81.5 352.732 81.5 352.658 81.5 352.584C81.5 352.51 81.5 352.436 81.5 352.362C81.5 352.288 81.5 352.215 81.5 352.141C81.5 352.067 81.5 351.994 81.5 351.92C81.5 351.846 81.5 351.773 81.5 351.699C81.5 351.626 81.5 351.553 81.5 351.479C81.5 351.406 81.5 351.333 81.5 351.26C81.5 351.187 81.5 351.114 81.5 351.041C81.5 350.968 81.5 350.895 81.5 350.822C81.5 350.749 81.5 350.676 81.5 350.604C81.5 350.531 81.5 350.458 81.5 350.386C81.5 350.313 81.5 350.241 81.5 350.168C81.5 350.096 81.5 350.024 81.5 349.952C81.5 349.879 81.5 349.807 81.5 349.735C81.5 349.663 81.5 349.591 81.5 349.519C81.5 349.447 81.5 349.375 81.5 349.304C81.5 349.232 81.5 349.16 81.5 349.089C81.5 349.017 81.5 348.946 81.5 348.874C81.5 348.803 81.5 348.732 81.5 348.66C81.5 348.589 81.5 348.518 81.5 348.447C81.5 348.376 81.5 348.305 81.5 348.234C81.5 348.163 81.5 348.092 81.5 348.021C81.5 347.951 81.5 347.88 81.5 347.81C81.5 347.739 81.5 347.669 81.5 347.598C81.5 347.528 81.5 347.458 81.5 347.387C81.5 347.317 81.5 347.247 81.5 347.177C81.5 347.107 81.5 347.037 81.5 346.967C81.5 346.898 81.5 346.828 81.5 346.758C81.5 346.689 81.5 346.619 81.5 346.55C81.5 346.48 81.5 346.411 81.5 346.342C81.5 346.272 81.5 346.203 81.5 346.134C81.5 346.065 81.5 345.996 81.5 345.927C81.5 345.858 81.5 345.79 81.5 345.721C81.5 345.652 81.5 345.584 81.5 345.515C81.5 345.447 81.5 345.378 81.5 345.31C81.5 345.242 81.5 345.174 81.5 345.106C81.5 345.038 81.5 344.97 81.5 344.902C81.5 344.834 81.5 344.766 81.5 344.699C81.5 344.631 81.5 344.563 81.5 344.496C81.5 344.428 81.5 344.361 81.5 344.294C81.5 344.227 81.5 344.16 81.5 344.093C81.5 344.026 81.5 343.959 81.5 343.892C81.5 343.825 81.5 343.758 81.5 343.692C81.5 343.625 81.5 343.559 81.5 343.492C81.5 343.426 81.5 343.36 81.5 343.293C81.5 343.227 81.5 343.161 81.5 343.095C81.5 343.029 81.5 342.964 81.5 342.898C81.5 342.832 81.5 342.767 81.5 342.701C81.5 342.636 81.5 342.57 81.5 342.505C81.5 342.44 81.5 342.375 81.5 342.31C81.5 342.245 81.5 342.18 81.5 342.115C81.5 342.05 81.5 341.985 81.5 341.921C81.5 341.856 81.5 341.792 81.5 341.728C81.5 341.663 81.5 341.599 81.5 341.535C81.5 341.471 81.5 341.407 81.5 341.343C81.5 341.279 81.5 341.216 81.5 341.152C81.5 341.088 81.5 341.025 81.5 340.962C81.5 340.898 81.5 340.835 81.5 340.772C81.5 340.709 81.5 340.646 81.5 340.583C81.5 340.52 81.5 340.457 81.5 340.395C81.5 340.332 81.5 340.27 81.5 340.207C81.5 340.145 81.5 340.083 81.5 340.021C81.5 339.958 81.5 339.896 81.5 339.835C81.5 339.773 81.5 339.711 81.5 339.65C81.5 339.588 81.5 339.526 81.5 339.465C81.5 339.404 81.5 339.343 81.5 339.282C81.5 339.22 81.5 339.16 81.5 339.099C81.5 339.038 81.5 338.977 81.5 338.917C81.5 338.856 81.5 338.796 81.5 338.735C81.5 338.675 81.5 338.615 81.5 338.555C81.5 338.495 81.5 338.435 81.5 338.375C81.5 338.316 81.5 338.256 81.5 338.197C81.5 338.137 81.5 338.078 81.5 338.019C81.5 337.96 81.5 337.901 81.5 337.842C81.5 337.783 81.5 337.724 81.5 337.665C81.5 337.607 81.5 337.548 81.5 337.49C81.5 337.432 81.5 337.373 81.5 337.315C81.5 337.257 81.5 337.199 81.5 337.142C81.5 337.084 81.5 337.026 81.5 336.969C81.5 336.911 81.5 336.854 81.5 336.797C81.5 336.739 81.5 336.682 81.5 336.625C81.5 336.569 81.5 336.512 81.5 336.455C81.5 336.399 81.5 336.342 81.5 336.286C81.5 336.229 81.5 336.173 81.5 336.117C81.5 336.061 81.5 336.005 81.5 335.95C81.5 335.894 81.5 335.838 81.5 335.783C81.5 335.728 81.5 335.672 81.5 335.617C81.5 335.562 81.5 335.507 81.5 335.452C81.5 335.397 81.5 335.343 81.5 335.288C81.5 335.234 81.5 335.179 81.5 335.125C81.5 335.071 81.5 335.017 81.5 334.963C81.5 334.909 81.5 334.856 81.5 334.802C81.5 334.748 81.5 334.695 81.5 334.642C81.5 334.589 81.5 334.535 81.5 334.482C81.5 334.43 81.5 334.377 81.5 334.324C81.5 334.272 81.5 334.219 81.5 334.167C81.5 334.114 81.5 334.062 81.5 334.01C81.5 333.958 81.5 333.907 81.5 333.855C81.5 333.803 81.5 333.752 81.5 333.7C81.5 333.649 81.5 333.598 81.5 333.547C81.5 333.496 81.5 333.445 81.5 333.395C81.5 333.344 81.5 333.293 81.5 333.243C81.5 333.193 81.5 333.143 81.5 333.093C81.5 333.043 81.5 332.993 81.5 332.943C81.5 332.893 81.5 332.844 81.5 332.795C81.5 332.745 81.5 332.696 81.5 332.647C81.5 332.598 81.5 332.549 81.5 332.501C81.5 332.452 81.5 332.404 81.5 332.355C81.5 332.307 81.5 332.259 81.5 332.211C81.5 332.163 81.5 332.115 81.5 332.068C81.5 332.02 81.5 331.973 81.5 331.925C81.5 331.878 81.5 331.831 81.5 331.784C81.5 331.737 81.5 331.691 81.5 331.644C81.5 331.598 81.5 331.551 81.5 331.505C81.5 331.459 81.5 331.413 81.5 331.367C81.5 331.321 81.5 331.276 81.5 331.23C81.5 331.185 81.5 331.139 81.5 331.094C81.5 331.049 81.5 331.004 81.5 330.959C81.5 330.915 81.5 330.87 81.5 330.826C81.5 330.781 81.5 330.737 81.5 330.693C81.5 330.649 81.5 330.605 81.5 330.562C81.5 330.518 81.5 330.475 81.5 330.431C81.5 330.388 81.5 330.345 81.5 330.302C81.5 330.259 81.5 330.217 81.5 330.174C81.5 330.132 81.5 330.089 81.5 330.047C81.5 330.005 81.5 329.963 81.5 329.921C81.5 329.88 81.5 329.838 81.5 329.797C81.5 329.755 81.5 329.714 81.5 329.673C81.5 329.632 81.5 329.591 81.5 329.551C81.5 329.51 81.5 329.47 81.5 329.43C81.5 329.389 81.5 329.349 81.5 329.31C81.5 329.27 81.5 329.23 81.5 329.191C81.5 329.151 81.5 329.112 81.5 329.073C81.5 329.034 81.5 328.995 81.5 328.957C81.5 328.918 81.5 328.879 81.5 328.841C81.5 328.803 81.5 328.765 81.5 328.727C81.5 328.689 81.5 328.652 81.5 328.614C81.5 328.577 81.5 328.54 81.5 328.503C81.5 328.465 81.5 328.429 81.5 328.392C81.5 328.355 81.5 328.319 81.5 328.283C81.5 328.247 81.5 328.211 81.5 328.175C81.5 328.139 81.5 328.103 81.5 328.068C81.5 328.033 81.5 327.997 81.5 327.962C81.5 327.927 81.5 327.893 81.5 327.858C81.5 327.823 81.5 327.789 81.5 327.755C81.5 327.721 81.5 327.687 81.5 327.653C81.5 327.619 81.5 327.586 81.5 327.553C81.5 327.519 81.5 327.486 81.5 327.453C81.5 327.42 81.5 327.388 81.5 327.355C81.5 327.323 81.5 327.291 81.5 327.259C81.5 327.227 81.5 327.195 81.5 327.163C81.5 327.131 81.5 327.1 81.5 327.069C81.5 327.038 81.5 327.007 81.5 326.976C81.5 326.945 81.5 326.915 81.5 326.885C81.5 326.854 81.5 326.824 81.5 326.794C81.5 326.764 81.5 326.735 81.5 326.705C81.5 326.676 81.5 326.647 81.5 326.618C81.5 326.589 81.5 326.56 81.5 326.531C81.5 326.503 81.5 326.475 81.5 326.447C81.5 326.418 81.5 326.391 81.5 326.363C81.5 326.335 81.5 326.308 81.5 326.281C81.5 326.253 81.5 326.226 81.5 326.2C81.5 326.173 81.5 326.146 81.5 326.12C81.5 326.094 81.5 326.068 81.5 326.042C81.5 326.016 81.5 325.991 81.5 325.965C81.5 325.94 81.5 325.915 81.5 325.89C81.5 325.865 81.5 325.84 81.5 325.816C81.5 325.791 81.5 325.767 81.5 325.743C81.5 325.719 81.5 325.695 81.5 325.672C81.5 325.648 81.5 325.625 81.5 325.602C81.5 325.579 81.5 325.556 81.5 325.533C81.5 325.511 81.5 325.488 81.5 325.466C81.5 325.444 81.5 325.422 81.5 325.401C81.5 325.379 81.5 325.357 81.5 325.336C81.5 325.315 81.5 325.294 81.5 325.273C81.5 325.253 81.5 325.232 81.5 325.212C81.5 325.192 81.5 325.172 81.5 325.152C81.5 325.132 81.5 325.113 81.5 325.094C81.5 325.074 81.5 325.055 81.5 325.037C81.5 325.018 81.5 324.999 81.5 324.981C81.5 324.963 81.5 324.945 81.5 324.927C81.5 324.909 81.5 324.892 81.5 324.874C81.5 324.857 81.5 324.84 81.5 324.823C81.5 324.806 81.5 324.79 81.5 324.773C81.5 324.757 81.5 324.741 81.5 324.725C81.5 324.709 81.5 324.694 81.5 324.678C81.5 324.663 81.5 324.648 81.5 324.633C81.5 324.618 81.5 324.604 81.5 324.59C81.5 324.575 81.5 324.561 81.5 324.547C81.5 324.534 81.5 324.52 81.5 324.507C81.5 324.493 81.5 324.48 81.5 324.468C81.5 324.455 81.5 324.442 81.5 324.43C81.5 324.418 81.5 324.406 81.5 324.394C81.5 324.382 81.5 324.371 81.5 324.359C81.5 324.348 81.5 324.337 81.5 324.326C81.5 324.316 81.5 324.305 81.5 324.295C81.5 324.285 81.5 324.275 81.5 324.265C81.5 324.255 81.5 324.246 81.5 324.237C81.5 324.227 81.5 324.218 81.5 324.21C81.5 324.201 81.5 324.193 81.5 324.185C81.5 324.177 81.5 324.169 81.5 324.161C81.5 324.153 81.5 324.146 81.5 324.139C81.5 324.132 81.5 324.125 81.5 324.119C81.5 324.112 81.5 324.106 81.5 324.1C81.5 324.094 81.5 324.088 81.5 324.083C81.5 324.077 81.5 324.072 81.5 324.067C81.5 324.062 81.5 324.057 81.5 324.053C81.5 324.049 81.5 324.044 81.5 324.041C81.5 324.037 81.5 324.033 81.5 324.03C81.5 324.027 81.5 324.024 81.5 324.021C81.5 324.018 81.5 324.016 81.5 324.013C81.5 324.011 81.5 324.009 81.5 324.008C81.5 324.006 81.5 324.004 81.5 324.003C81.5 324.002 81.5 324.001 81.5 324.001C81.5 324 81.5 324 74 324ZM66.5 410.5C66.5 413.07 66.8334 416.225 68.4841 418.943C69.3849 420.426 70.697 421.802 72.4841 422.74C74.2554 423.67 76.0777 423.952 77.6865 423.897C80.6515 423.795 83.2862 422.542 85.1948 421.414C87.2565 420.196 89.3617 418.58 91.4318 416.788C99.5767 409.738 110.114 397.356 120.415 384.503C130.789 371.559 141.477 357.424 149.734 346.839C153.915 341.479 157.446 337.062 160.098 334.012C161.442 332.467 162.42 331.434 163.062 330.84C163.395 330.531 163.466 330.501 163.325 330.595C163.25 330.645 162.982 330.818 162.554 330.999C162.177 331.158 161.262 331.5 160 331.5V316.5C157.412 316.5 155.524 317.77 155.038 318.092C154.215 318.637 153.47 319.278 152.864 319.839C151.627 320.986 150.231 322.499 148.779 324.17C145.839 327.551 142.092 332.248 137.907 337.614C129.429 348.482 119.024 362.253 108.71 375.122C98.3236 388.082 88.5796 399.418 81.615 405.446C79.9078 406.924 78.559 407.912 77.5643 408.5C76.4165 409.178 76.3924 408.933 77.1709 408.906C77.6865 408.888 78.5335 408.975 79.457 409.459C80.3962 409.953 80.9878 410.634 81.3047 411.156C81.7877 411.951 81.5 412.118 81.5 410.5H66.5ZM22.5 294C22.5 314.711 39.2893 331.5 60 331.5V316.5C47.5736 316.5 37.5 306.426 37.5 294H22.5ZM60 0.5C39.2893 0.5 22.5 17.2893 22.5 38H37.5C37.5 25.5736 47.5736 15.5 60 15.5V0.5ZM408.5 38C408.5 17.2893 391.711 0.5 371 0.5V15.5C383.426 15.5 393.5 25.5736 393.5 38H408.5ZM371.047 331.5C391.773 331.5 408.5 314.695 408.5 294H393.5C393.5 306.442 383.458 316.5 371.047 316.5V331.5Z" fill="#5CE1E6"/>
<path d="M77.6 70.25V161H112.03C130.84 161 141.73 150.66 141.73 135.7C141.73 121.07 133.7 114.8 122.37 112.82C130.07 108.86 133.7 101.71 133.7 93.35C133.7 76.08 121.38 70.25 105.76 70.25H77.6ZM98.28 105.78V86.2H99.93C108.95 86.2 113.68 88.95 113.68 95.44C113.68 103.03 108.84 105.78 99.93 105.78H98.28ZM98.28 145.05V123.6H104.77C114.56 123.6 119.95 126.57 119.95 134.93C119.95 142.08 114.56 145.05 104.77 145.05H98.28ZM194.803 70.25H175.663L139.033 161H161.253L167.963 142.85H202.503L209.213 161H231.433L194.803 70.25ZM195.463 124.7H175.003L185.123 98.3H185.343L195.463 124.7ZM234.973 70.25V161H255.653V125.14L283.373 161H309.663L278.423 123.49C289.533 119.97 297.013 110.84 297.013 97.2C297.013 79.38 284.253 70.25 267.423 70.25H234.973ZM255.653 110.51V86.75H258.073C265.883 86.75 275.233 87.3 275.233 98.63C275.233 109.96 265.883 110.51 258.073 110.51H255.653ZM71.88 198.4H93.44V271H114.12V198.4H135.68V180.25H71.88V198.4ZM130.464 242.84C130.464 259.34 142.014 272.65 158.514 272.65C166.214 272.65 172.814 269.24 176.994 264.62H177.214V271H196.464V214.57H176.994V219.96C172.374 215.45 166.104 212.92 158.514 212.92C142.014 212.92 130.464 226.34 130.464 242.84ZM151.144 242.84C151.144 235.03 156.974 229.53 164.344 229.53C171.604 229.53 177.434 235.03 177.434 242.84C177.434 250.54 171.934 256.04 164.344 256.04C156.424 256.04 151.144 250.54 151.144 242.84ZM209.621 271H229.091V176.4H209.621V271ZM306.738 214.57H281.438L261.748 234.26V176.4H242.278V271H261.748V248.45L284.298 271H309.378L279.898 241.52L306.738 214.57ZM337.921 212.92C323.071 212.92 313.281 219.52 313.281 231.07C313.281 239.54 319.001 243.5 324.721 246.47C331.101 249.77 337.261 250.1 337.261 254.17C337.261 257.91 333.961 258.24 331.211 258.24C324.941 258.24 317.241 251.75 317.241 251.75L309.321 265.06C309.321 265.06 317.461 272.65 331.101 272.65C342.651 272.65 357.831 270.01 357.831 253.4C357.831 241.85 348.151 237.67 340.671 235.36C335.831 233.82 331.871 232.94 331.871 229.97C331.871 227.33 333.631 226.56 337.921 226.56C343.861 226.56 350.461 230.08 350.461 230.08L356.841 217.32C356.841 217.32 348.811 212.92 337.921 212.92Z" fill="white"/>
<path d="M77.6 70.25V161H112.03C130.84 161 141.73 150.66 141.73 135.7C141.73 121.07 133.7 114.8 122.37 112.82C130.07 108.86 133.7 101.71 133.7 93.35C133.7 76.08 121.38 70.25 105.76 70.25H77.6ZM98.28 105.78V86.2H99.93C108.95 86.2 113.68 88.95 113.68 95.44C113.68 103.03 108.84 105.78 99.93 105.78H98.28ZM98.28 145.05V123.6H104.77C114.56 123.6 119.95 126.57 119.95 134.93C119.95 142.08 114.56 145.05 104.77 145.05H98.28ZM194.803 70.25H175.663L139.033 161H161.253L167.963 142.85H202.503L209.213 161H231.433L194.803 70.25ZM195.463 124.7H175.003L185.123 98.3H185.343L195.463 124.7Z" fill="#5CE1E6"/>
</svg>
