<?xml version="1.0" encoding="utf-8"?>
<!-- Generator: Adobe Illustrator 17.1.0, SVG Export Plug-In . SVG Version: 6.00 Build 0)  -->
<!DOCTYPE svg PUBLIC "-//W3C//DTD SVG 1.1//EN" "http://www.w3.org/Graphics/SVG/1.1/DTD/svg11.dtd">
<svg version="1.1" id="Layer_1" xmlns="http://www.w3.org/2000/svg" xmlns:xlink="http://www.w3.org/1999/xlink" x="0px" y="0px"
	 viewBox="0 0 500 200" enable-background="new 0 0 500 200" xml:space="preserve">
<g>
	<path fill="#2B2C2A" d="M164.9,155.2c-16.1,0-32.2,0-48.3,0c-1.4,0-2.8,0.1-4.2-0.1c-5.5-0.7-8.2-5.5-5.8-10.5c0.5-1,1-1.9,1.6-2.8
		c16.4-28.5,32.9-56.9,49.3-85.4c0.7-1.2,1.4-2.5,2.2-3.6c2.9-3.7,8-3.7,11,0c0.8,1,1.4,2.1,2,3.1c16.5,28.6,33,57.2,49.6,85.9
		c0.6,1.1,1.2,2.2,1.8,3.2c1.9,3.2,0.2,8.7-5,9.8c-1.5,0.3-3.2,0.3-4.7,0.3C197.8,155.2,181.3,155.2,164.9,155.2z M125.7,140.5
		c1.1,0.8,2.4,0.5,3.6,0.5c23.7,0,47.4,0,71.1,0c1.1,0,2.1,0,3.2-0.1c0.8-0.1,1.1-0.8,0.8-1.5c-0.3-0.7-0.6-1.3-1-1.9
		c-12.2-21.1-24.4-42.2-36.6-63.4c-0.5-0.9-0.8-2-2.3-2.1c-12.9,22.4-25.9,44.9-38.8,67.5C125.6,139.8,125.7,140.2,125.7,140.5z"/>
	<path fill="#AD2430" d="M260.5,50.1c16.4,0,32.9,0,49.3,0c1.4,0,2.8-0.1,4.2,0.1c4.6,0.5,7.3,5.1,5.6,9.4c-0.4,1.1-1.1,2.2-1.7,3.3
		c-16.5,28.6-33,57.2-49.6,85.9c-0.7,1.2-1.4,2.5-2.3,3.6c-2.9,3.6-8,3.6-11-0.1c-0.7-0.8-1.2-1.8-1.7-2.7
		c-16.7-28.9-33.4-57.9-50.1-86.8c-0.5-0.9-1.1-1.8-1.5-2.8c-2-4.9,0.9-9.4,6.2-9.8c1.4-0.1,2.8,0,4.2,0
		C228.3,50.1,244.4,50.1,260.5,50.1z M220.4,64.2c13.6,23.5,26.6,46.3,39.8,68.9c1.7-0.6,2.1-1.9,2.7-2.9c2.7-4.6,5.3-9.2,7.9-13.8
		c9.3-16.1,18.6-32.1,27.8-48.2c0.7-1.1,2-2.2,1.2-3.9C273.7,64.2,247.5,64.2,220.4,64.2z"/>
	<path fill="#2B2C2A" d="M352.3,155.7c-16.1,0-32.2,0-48.3,0c-1.6,0-3.2,0.1-4.8-0.1c-4.7-0.6-7.2-5-5.5-9.4
		c0.4-1.1,1.1-2.2,1.7-3.3c16.6-28.8,33.2-57.5,49.8-86.3c0.7-1.2,1.4-2.5,2.3-3.5c2.8-3.1,7.6-3,10.3,0.1c0.8,0.9,1.4,2,2,3.1
		c16.7,28.9,33.4,57.8,50.1,86.8c0.5,0.9,1.2,1.8,1.5,2.8c2,4.9-0.9,9.4-6.2,9.8c-1.4,0.1-2.8,0-4.2,0
		C384.8,155.7,368.6,155.7,352.3,155.7z M352.8,72.1c-1,1.6-1.6,2.4-2.2,3.3c-12,20.8-24,41.6-36,62.4c-0.4,0.8-0.9,1.5-1.3,2.3
		c-0.3,0.7-0.3,1.4,0.7,1.5c0.9,0.1,1.8,0.1,2.6,0.1c24.4,0,48.8,0,73.2,0c0.8,0,1.8,0.3,2.6-0.9C379.5,118.2,366.3,95.4,352.8,72.1
		z"/>
	<path fill="#2B2C2A" d="M69.5,133.1c1.6-1.1,2.1-2.5,2.8-3.7c11.7-20.2,23.3-40.4,35-60.6c0.5-0.9,1.1-1.8,1.6-2.8
		c0.5-1,0.1-1.8-0.9-1.8c-1.4-0.1-2.8,0-4.2,0c-10.3,0-20.5,0-30.8,0c-1.4,0-2.8,0.1-4.2-0.1c-3.5-0.5-6.1-3.6-6.1-7
		c0-3.4,2.7-6.4,6.2-6.8c1-0.1,2.1-0.1,3.2-0.1c15.9,0,31.9,0,47.8,0c1.1,0,2.1,0,3.2,0.1c4.6,0.5,7.4,5,5.7,9.4
		c-0.4,1.1-1.1,2.2-1.7,3.3c-16.6,28.8-33.2,57.6-49.9,86.4c-0.6,1.1-1.2,2.2-2,3.1c-2.9,3.7-8,3.6-11-0.1c-0.7-0.8-1.2-1.8-1.7-2.7
		c-8-13.9-16.1-27.9-24.1-41.8c-0.9-1.5-1.7-3.1-1.8-4.9c-0.1-3,1.6-5.7,4.2-6.7c2.6-1,6-0.3,7.8,1.8c1,1.2,1.8,2.6,2.6,4
		c5.1,8.9,10.3,17.8,15.4,26.6C67.3,130.1,68,131.7,69.5,133.1z"/>
	<path fill="#AD2430" d="M31,49.6c8.8-0.2,16.3,7.2,16.4,16c0,8.6-7,16.1-15.6,16.2c-10.4,0.1-16.4-8-16.6-15.8
		C15,58.2,20.8,50.1,31,49.6z"/>
	<path fill="#AD2430" d="M417.4,74.2c0-4.8,0-9.5,0-14.3c0-1.6,1.2-2.5,2.4-1.6c1.4,1,2.4,0.9,3.8,0.2c4.3-2.2,9.1,0.6,9.9,5.4
		c0.1,0.5,0.2,1,0.2,1.6c0,7.8,0,15.5,0,23.3c0,0.3-0.1,0.7-0.2,1c-0.3,0.8-1.1,0.8-1.8,0.8c-0.5-0.1-1.1-0.3-1.1-0.9
		c-0.1-1.2-0.1-2.5-0.1-3.7c0-5.8,0-11.7,0-17.5c0-1.6,0-3.2-0.6-4.7c-0.7-1.9-2-2.9-3.9-3c-2.2-0.2-3.8,0.9-4.7,2.8
		c-0.7,1.7-0.8,3.4-0.8,5.2c0,5.5,0,10.9,0,16.4c0,1.2,0,2.5,0,3.7c0,1-0.3,1.7-1.4,1.8c-1.2,0.1-1.7-0.5-1.8-2
		c-0.1-1.1,0-2.1,0-3.2C417.3,81.6,417.3,77.9,417.4,74.2C417.4,74.2,417.4,74.2,417.4,74.2z"/>
	<path fill="#AD2430" d="M412.2,70c0.1,6.4,0.5,5.7-5.5,5.7c-2.1,0-4.2,0-6.4,0.1c-0.8,0-1.3,0.5-1.3,1.3c0,2.1-0.1,4.3,0.1,6.3
		c0.3,2.5,2.2,4.3,4.5,4.5c2.5,0.2,4.5-1.4,5.2-4.3c0.2-0.8,0.2-1.8,0.4-2.6c0.2-0.8,1-1,1.7-0.9c0.8,0.1,1.3,0.5,1.3,1.4
		c0.2,5.7-3.6,9.6-9.1,9.2c-4.2-0.3-7.2-3.5-7.3-8.3c-0.2-5.5-0.1-11,0-16.4c0-1.2,0.3-2.5,0.8-3.6c1.4-3.3,3.9-4.9,7.5-4.9
		c3.7,0,6.8,2.4,7.8,6c0.2,0.7,0.3,1.4,0.4,2.1C412.3,67.2,412.2,68.6,412.2,70z M403.7,72.7c5.9,0,5.3,0.5,5.3-5.4
		c0-0.9-0.1-1.8-0.3-2.6c-0.5-2.6-2.3-4-4.8-4c-2.5,0-4.3,1.5-4.8,4c-0.2,1-0.2,2.1-0.2,3.1C399,72.9,398.4,72.7,403.7,72.7z"/>
	<path fill="#AD2430" d="M476.4,82.3c1.5-6,3-11.7,4.4-17.3c0.4-1.7,0.8-3.4,1.3-5.1c0.2-0.7,0.4-1.4,1.2-1.7c0.5-0.2,1-0.1,1.5,0
		c0.2,0.1,0.5,0.5,0.5,0.8c0,0.9-0.1,1.8-0.4,2.6c-3.2,12.5-6.3,25-9.5,37.4c-0.3,1-0.6,2.1-1,3c-0.3,0.6-1.1,0.8-1.8,0.5
		c-0.5-0.2-0.8-0.6-0.7-1.2c0.4-1.5,0.6-3.1,1.1-4.6c1.5-4.2,1.1-8.2,0-12.4c-2-7.3-3.6-14.7-5.4-22.1c-0.2-1-0.4-2.1-0.5-3.1
		c0-0.5,0.3-1,0.9-1c0.5,0,1.2,0.1,1.4,0.5c0.5,0.7,0.7,1.6,0.9,2.4c1.4,5.8,2.8,11.7,4.2,17.5C474.8,79.7,474.9,80.9,476.4,82.3z"
		/>
	<path fill="#AD2430" d="M448,74c0-2.3,0-4.6,0-6.9c0-1.6,0.3-3.2,1-4.6c1.5-3.2,4-4.8,7.6-4.8c3.6,0.1,6,1.9,7.4,5.1
		c0.6,1.5,0.8,3.1,0.8,4.7c0,4.6,0,9.2,0,13.8c0,1.2-0.2,2.5-0.6,3.6c-1.2,4.1-4.1,6.1-8.3,6c-3.7-0.2-6.6-2.5-7.5-6.3
		c-0.3-1.4-0.3-2.8-0.4-4.2C448,78.3,448,76.1,448,74C448,74,448,74,448,74z M461.5,74.3C461.5,74.3,461.5,74.3,461.5,74.3
		c0-1.1,0-2.1,0-3.2c-0.1-2.1,0-4.3-0.4-6.3c-0.5-2.9-2.2-4.1-4.7-4.2c-2.7,0-4.5,1.5-5.1,4.4c-0.1,0.7-0.2,1.4-0.2,2.1
		c0,4.8,0,9.5,0,14.3c0,1.4,0.2,2.8,1,4.1c1,1.7,2.5,2.6,4.4,2.5c1.9,0,3.3-1,4.2-2.8c0.6-1.3,0.8-2.7,0.8-4.1
		C461.5,78.9,461.5,76.6,461.5,74.3z"/>
	<path fill="#AD2430" d="M442.7,78.9c0,5.1,0,10.2,0,15.4c0,1.2,0,2.5-0.2,3.7c-0.6,2.8-2.8,4.6-5.7,4.7c-0.6,0-1-0.3-1.2-0.9
		c-0.1-0.5-0.2-1.1,0.4-1.4c0.4-0.3,0.9-0.5,1.4-0.7c1.4-0.7,2.1-1.8,2.1-3.4c0-1.2,0-2.5,0-3.7c0-10.1,0-20.1,0-30.2
		c0-1.2-0.2-2.5,0.3-3.6c0.3-0.6,0.8-0.7,1.3-0.6c0.4,0.1,1.1,0.4,1.2,0.8c0.2,1,0.3,2.1,0.3,3.1C442.7,67.6,442.7,73.3,442.7,78.9z
		"/>
	<path fill="#AD2430" d="M442.6,51.4c-0.1,0.2-0.2,0.8-0.4,1.2c-0.1,0.2-0.6,0.5-0.9,0.5c-0.5,0-1.1-0.2-1.4-0.5
		c-0.3-0.3-0.4-0.9-0.4-1.4c0-1-0.1-2.2,1.3-2.5C442.1,48.3,442.7,49.2,442.6,51.4z"/>
</g>
</svg>
