<?xml version="1.0" encoding="utf-8"?>
<!-- Generator: Adobe Illustrator 17.1.0, SVG Export Plug-In . SVG Version: 6.00 Build 0)  -->
<!DOCTYPE svg PUBLIC "-//W3C//DTD SVG 1.1//EN" "http://www.w3.org/Graphics/SVG/1.1/DTD/svg11.dtd">
<svg version="1.1"
	 id="svg4485" xmlns:cc="http://creativecommons.org/ns#" xmlns:rdf="http://www.w3.org/1999/02/22-rdf-syntax-ns#" xmlns:inkscape="http://www.inkscape.org/namespaces/inkscape" xmlns:dc="http://purl.org/dc/elements/1.1/" xmlns:sodipodi="http://sodipodi.sourceforge.net/DTD/sodipodi-0.dtd" xmlns:svg="http://www.w3.org/2000/svg" inkscape:export-xdpi="96" inkscape:version="0.92.1 r15371" sodipodi:docname="Logo_color.svg" inkscape:export-ydpi="96" inkscape:export-filename="D:\dot_Nuts\TZLogo\Final\Logo_color.png"
	 xmlns="http://www.w3.org/2000/svg" xmlns:xlink="http://www.w3.org/1999/xlink" x="0px" y="0px" viewBox="1996.9 1464.3 500 250"
	 enable-background="new 1996.9 1464.3 500 250" xml:space="preserve">
<g id="g4497" transform="matrix(0.85637854,0,0,0.85637854,3.2391307,17.997258)">
	<g id="g4503" transform="translate(66.2901,66.4518)">
		<path id="path4505" inkscape:connector-curvature="0" fill="#231F20" d="M2525.6,1851.2c0-2.5-0.9-4.5-2.7-6.2
			c-1.8-1.6-4.1-2.4-7-2.4c-2.8,0-5.1,0.8-7,2.4s-2.8,3.7-2.8,6.2c0,2.4,0.9,4.5,2.7,6.2c1.8,1.7,4.1,2.5,6.8,2.5
			c2.9,0,5.3-0.8,7.2-2.4C2524.6,1855.9,2525.6,1853.8,2525.6,1851.2"/>
	</g>
	<g id="g4507" transform="translate(79.4952,77.4962)">
		<path id="path4509" inkscape:connector-curvature="0" fill="#231F20" d="M2593.5,1772.3h-16v41.6c0,5.1,0.1,8.6,0.4,10.3h-0.2
			c-1.2-2-2.4-4.1-3.8-6.1l-29.9-45.8h-18.3v75.3h16v-41.4c0-5.5-0.1-9.5-0.4-12.2h0.2c0.7,1.4,2,3.5,3.8,6.2l31,47.3h17.1V1772.3z"
			/>
	</g>
	<g id="g4511" transform="translate(92.2823,70.5514)">
		<path id="path4513" inkscape:connector-curvature="0" fill="#231F20" d="M2659.3,1821.9v-42.7h-17v44.3c0,11.8-4.7,17.6-14,17.6
			c-9.5,0-14.3-6.1-14.3-18.3v-43.7h-17v43.5c0,22.1,10.2,33.1,30.6,33.1C2648.8,1855.8,2659.3,1844.5,2659.3,1821.9"/>
	</g>
	<g id="g4515" transform="translate(103.5489,77.4962)">
		<path id="path4517" inkscape:connector-curvature="0" fill="#231F20" d="M2717.3,1772.3h-59.8v13.8h21.4v61.5h17v-61.5h21.5
			V1772.3z"/>
	</g>
	<g id="g4519" transform="translate(107.4258,70.5172)">
		<path id="path4521" inkscape:connector-curvature="0" fill="#231F20" d="M2737.2,1822.2c2.3,0.9,4.5,1.9,6.5,2.8
			c2,0.9,3.7,1.9,5.2,2.8c1.5,1,2.6,2,3.4,3.2c0.8,1.2,1.3,2.5,1.3,3.9c0,1.1-0.3,2.1-0.8,3c-0.5,0.9-1.3,1.7-2.4,2.4
			c-1.1,0.7-2.4,1.2-4,1.6c-1.6,0.4-3.5,0.6-5.6,0.6c-3.6,0-7.3-0.6-10.8-1.9c-3.6-1.3-6.9-3.2-9.9-5.8v16.8c2.7,1.4,6,2.5,9.7,3.1
			c3.7,0.7,7.7,1.1,11.8,1.1c4,0,7.9-0.4,11.5-1.1c3.6-0.8,6.8-2,9.5-3.8c2.7-1.8,4.9-4.1,6.5-6.9c1.6-2.9,2.4-6.4,2.4-10.6
			c0-3-0.5-5.7-1.4-8c-0.9-2.3-2.2-4.3-3.9-6.1c-1.7-1.8-3.8-3.4-6.2-4.8c-2.4-1.4-5.1-2.8-8.1-4c-2.2-0.9-4.2-1.8-5.9-2.6
			c-1.8-0.9-3.2-1.7-4.5-2.6c-1.2-0.9-2.2-1.8-2.8-2.8c-0.7-1-1-2.1-1-3.4c0-1.2,0.3-2.2,0.9-3.1c0.6-0.9,1.4-1.7,2.5-2.4
			c1.1-0.7,2.4-1.2,4-1.5c1.6-0.4,3.3-0.6,5.2-0.6c1.4,0,2.9,0.1,4.4,0.3c1.6,0.2,3.1,0.5,4.7,1c1.6,0.4,3.1,1,4.6,1.7
			c1.5,0.7,2.9,1.4,4.1,2.3v-15.7c-2.6-1-5.3-1.7-8.4-2.2c-3-0.5-6.5-0.7-10.4-0.7c-4,0-7.8,0.4-11.3,1.3c-3.6,0.9-6.7,2.2-9.4,4
			c-2.7,1.8-4.8,4.1-6.4,7c-1.6,2.8-2.4,6.2-2.4,10.1c0,5,1.5,9.3,4.3,12.8C2726.9,1816.7,2731.3,1819.7,2737.2,1822.2"/>
	</g>
	<path id="path4561" inkscape:connector-curvature="0" fill="#80CC28" d="M2545,1768.2h-74.9v74.9h74.9L2545,1768.2z"/>
	<g id="g4563" transform="translate(45.1944,90.774)">
		<path id="path4565" inkscape:connector-curvature="0" fill="#40B93C" d="M2417,1677.4l-66.4-34.6l-34.6,66.5l66.4,34.6
			L2417,1677.4z"/>
	</g>
	<path id="path4567" inkscape:connector-curvature="0" fill="#3871C1" d="M2545,1850.2h-74.9v74.9h74.9L2545,1850.2z"/>
	<path id="path4569" inkscape:connector-curvature="0" fill="#50ADE5" d="M2387.1,1925.1h74.9v-74.9h-74.9V1925.1z"/>
	<g id="g4571" transform="translate(66.2901,66.4518)">
		<path id="path4573" inkscape:connector-curvature="0" fill="#231F20" d="M2525.6,1851.2c0-2.5-0.9-4.5-2.7-6.2
			c-1.8-1.6-4.1-2.4-7-2.4c-2.8,0-5.1,0.8-7,2.4s-2.8,3.7-2.8,6.2c0,2.4,0.9,4.5,2.7,6.2c1.8,1.7,4.1,2.5,6.8,2.5
			c2.9,0,5.3-0.8,7.2-2.4C2524.6,1855.9,2525.6,1853.8,2525.6,1851.2"/>
	</g>
	<g id="g4575" transform="translate(79.4952,77.4962)">
		<path id="path4577" inkscape:connector-curvature="0" fill="#231F20" d="M2593.5,1772.3h-16v41.6c0,5.1,0.1,8.6,0.4,10.3h-0.2
			c-1.2-2-2.4-4.1-3.8-6.1l-29.9-45.8h-18.3v75.3h16v-41.4c0-5.5-0.1-9.5-0.4-12.2h0.2c0.7,1.4,2,3.5,3.8,6.2l31,47.3h17.1V1772.3z"
			/>
	</g>
	<g id="g4579" transform="translate(92.2823,70.5514)">
		<path id="path4581" inkscape:connector-curvature="0" fill="#231F20" d="M2659.3,1821.9v-42.7h-17v44.3c0,11.8-4.7,17.6-14,17.6
			c-9.5,0-14.3-6.1-14.3-18.3v-43.7h-17v43.5c0,22.1,10.2,33.1,30.6,33.1C2648.8,1855.8,2659.3,1844.5,2659.3,1821.9"/>
	</g>
	<g id="g4583" transform="translate(103.5489,77.4962)">
		<path id="path4585" inkscape:connector-curvature="0" fill="#231F20" d="M2717.3,1772.3h-59.8v13.8h21.4v61.5h17v-61.5h21.5
			V1772.3z"/>
	</g>
	<g id="g4587" transform="translate(107.4258,70.5172)">
		<path id="path4589" inkscape:connector-curvature="0" fill="#231F20" d="M2737.2,1822.2c2.3,0.9,4.5,1.9,6.5,2.8
			c2,0.9,3.7,1.9,5.2,2.8c1.5,1,2.6,2,3.4,3.2c0.8,1.2,1.3,2.5,1.3,3.9c0,1.1-0.3,2.1-0.8,3c-0.5,0.9-1.3,1.7-2.4,2.4
			c-1.1,0.7-2.4,1.2-4,1.6c-1.6,0.4-3.5,0.6-5.6,0.6c-3.6,0-7.3-0.6-10.8-1.9c-3.6-1.3-6.9-3.2-9.9-5.8v16.8c2.7,1.4,6,2.5,9.7,3.1
			c3.7,0.7,7.7,1.1,11.8,1.1c4,0,7.9-0.4,11.5-1.1c3.6-0.8,6.8-2,9.5-3.8c2.7-1.8,4.9-4.1,6.5-6.9c1.6-2.9,2.4-6.4,2.4-10.6
			c0-3-0.5-5.7-1.4-8c-0.9-2.3-2.2-4.3-3.9-6.1c-1.7-1.8-3.8-3.4-6.2-4.8c-2.4-1.4-5.1-2.8-8.1-4c-2.2-0.9-4.2-1.8-5.9-2.6
			c-1.8-0.9-3.2-1.7-4.5-2.6c-1.2-0.9-2.2-1.8-2.8-2.8c-0.7-1-1-2.1-1-3.4c0-1.2,0.3-2.2,0.9-3.1c0.6-0.9,1.4-1.7,2.5-2.4
			c1.1-0.7,2.4-1.2,4-1.5c1.6-0.4,3.3-0.6,5.2-0.6c1.4,0,2.9,0.1,4.4,0.3c1.6,0.2,3.1,0.5,4.7,1c1.6,0.4,3.1,1,4.6,1.7
			c1.5,0.7,2.9,1.4,4.1,2.3v-15.7c-2.6-1-5.3-1.7-8.4-2.2c-3-0.5-6.5-0.7-10.4-0.7c-4,0-7.8,0.4-11.3,1.3c-3.6,0.9-6.7,2.2-9.4,4
			c-2.7,1.8-4.8,4.1-6.4,7c-1.6,2.8-2.4,6.2-2.4,10.1c0,5,1.5,9.3,4.3,12.8C2726.9,1816.7,2731.3,1819.7,2737.2,1822.2"/>
	</g>
	<path id="path4629" inkscape:connector-curvature="0" fill="#80CC28" d="M2545,1768.2h-74.9v74.9h74.9L2545,1768.2z"/>
	<g id="g4631" transform="translate(45.1944,90.774)">
		<path id="path4633" inkscape:connector-curvature="0" fill="#40B93C" d="M2417,1677.4l-66.4-34.6l-34.6,66.5l66.4,34.6
			L2417,1677.4z"/>
	</g>
	<path id="path4635" inkscape:connector-curvature="0" fill="#3871C1" d="M2545,1850.2h-74.9v74.9h74.9L2545,1850.2z"/>
	<path id="path4637" inkscape:connector-curvature="0" fill="#50ADE5" d="M2387.1,1925.1h74.9v-74.9h-74.9V1925.1z"/>
</g>
</svg>
