<?xml version="1.0" encoding="utf-8"?>
<!-- Generator: Adobe Illustrator 17.1.0, SVG Export Plug-In . SVG Version: 6.00 Build 0)  -->
<!DOCTYPE svg PUBLIC "-//W3C//DTD SVG 1.1//EN" "http://www.w3.org/Graphics/SVG/1.1/DTD/svg11.dtd">
<svg version="1.1" id="Layer_1" xmlns="http://www.w3.org/2000/svg" xmlns:xlink="http://www.w3.org/1999/xlink" x="0px" y="0px"
	 viewBox="0 0 500 250" enable-background="new 0 0 500 250" xml:space="preserve">
<g>
	<path fill="#0E1011" d="M73.6,163.9c-1.8,2.9-4.3,5.1-6.5,8c-2.5-2-4.9-3.9-7.5-5.9c-4.4,3.2-9.3,4.5-14.7,4.3
		c-10.7-0.4-19.7-9.1-19.8-19.9c-0.1-16.6-0.1-33.2,0-49.8c0.1-11.4,9.4-20.2,21-20.3c12-0.1,21.5,8.6,21.6,20.1
		c0.2,16.6,0,33.2,0,49.8c0,0.7,0.1,1.6-0.2,2.2c-2.4,4.4-0.1,7,3.4,9.2C71.8,162.3,72.6,163.1,73.6,163.9z M49.7,144.6
		c1.8,1.3,3.1,2.7,5.1,3.5c0-6.1,0-11.9,0-17.8c0-9,0-18,0-27c0-2.8-0.2-5.5-2.4-7.6c-2.7-2.5-5.9-3.1-9.3-1.8
		c-3.6,1.3-5.1,4.2-5.1,7.9c0,15.7,0,31.4,0,47.2c0,0.7,0.2,1.5,0.3,2.2c1,4.6,4.8,6.9,9.7,5.8c-1.2-1.9-3.3-2.7-4.7-4.3
		C45.1,149.7,47.5,147.4,49.7,144.6z"/>
	<path fill="#0E1011" d="M131.2,150.9c-5.6,0-11,0-16.8,0c-1.2,6.1-2.5,12.2-3.8,18.5c-4.3,0-8.5,0-13,0
		c6.6-29.5,13.1-58.8,19.7-88.2c3.5,0,7,0,10.9,0c6.5,29.2,13.1,58.6,19.7,88.2c-4.3,0-8.5,0-13,0
		C133.7,163.3,132.4,157.1,131.2,150.9z M123.1,109c-2.8,9.7-4.5,19.6-6.3,29.4c4.1,0,7.9,0,12,0C126.8,128.3,124.9,118.6,123.1,109
		z"/>
	<linearGradient id="SVGID_1_" gradientUnits="userSpaceOnUse" x1="176.0857" y1="125" x2="466.0601" y2="125">
		<stop  offset="0" style="stop-color:#EE7923"/>
		<stop  offset="1" style="stop-color:#FCC829"/>
	</linearGradient>
	<path fill="url(#SVGID_1_)" d="M383.6,36.8c-7.4,2.6-15.2,4.1-22.7,6.1c-13.4,3.6-26.7,7.2-40.1,10.7c-1.7,0.4-2.4,1-2.3,2.7
		c0,1.1,0,2.2,0,3.4c0,36,0,72,0,107.9c0,8.4,0.1,16.7,0,25.1c0,2.3,0.7,3.2,3,3.8c15,3.8,29.9,7.9,44.9,11.8
		c6.5,1.7,12.9,3.9,20.1,5V37.4C385.3,36.8,384.5,36.5,383.6,36.8z M373,151c-0.2,9.3-7.5,17.2-17.3,18.7
		c-5.9,0.9-11.1-0.2-15.9-3.6c-5.7-3.9-8.5-9.5-8.6-16.2c-0.2-16.4-0.3-32.7,0-49.1c0.2-12.2,10.1-20.2,21.5-20.1
		c10.5,0.1,20.5,8.9,20.4,20.1c0,4.1,0,8.2,0,12.4c0,4.1,0,8.2,0,12.4c0,0-0.1,0-0.1,0C373,134,373.1,142.5,373,151z M465.2,81.2
		c-2.7-0.4-5.5,0-8.2-0.2c-2.6-0.2-3.7,0.9-4.5,3.3c-4.4,13.1-9,26.1-13.6,39.2c-0.3,0.9-0.6,1.9-1.7,2.4c-1.1-1-1.4-2.4-1.8-3.6
		c-4.5-12.8-9-25.6-13.5-38.4c-0.4-1.1-0.4-2.7-2.1-2.7c-3.6,0-7.2-0.4-10.8,0.2v87.9c4.3,0.3,8.3,0.4,12.7-0.1v-51.1
		c1,1.7,1.7,3.5,2.3,5.2c3,9.1,6.1,18.2,9,27.3c0.7,2.2,1.8,3.2,4.3,3.2c2.4,0,3.6-0.7,4.3-3c1.5-5.1,3.1-10.2,4.9-15.3
		c2.1-5.9,3.5-12,6.8-17.5v51.3h12.1C466.4,164.4,466.2,83.9,465.2,81.2z M209.7,133.7c-1.2-3.6-1-4.4,2-6.7c3-2.3,4.9-5.2,5.9-8.8
		c2.3-8.1,2.2-16.3-0.4-24.3c-2-6.1-6.3-10.3-12.7-12c-6.5-1.7-13.2-1.1-19.8-1c-2.8,0-5.7-0.8-8.6,0.5V169c3.9,0.9,9.7,1,12.6,0.1
		c0.5-1.3,0.3-2.7,0.3-4.1c0-9.6,0-19.2,0-28.9c0-3.8,2.3-5.4,5.6-4c1.7,0.7,2.3,2.3,2.7,3.8c1.2,3.9,2.3,7.9,3.5,11.8
		c2.1,6.5,4.2,13,6.2,19.6c0.4,1.3,1,2.3,2.5,2.3c3.8,0.1,7.7,0.4,11.5-0.4c0.3-2-0.3-3.7-0.9-5.3
		C216.7,153.9,213.2,143.8,209.7,133.7z M205,115.5c-0.7,2.4-2.5,3.9-5,4.6c-2.1,0.6-4.2,0.7-6.3,0.7c-4.9,0-5.2,0.1-5.3-4.6
		c-0.1-7.2-0.5-14.4,0.3-21.6c0-0.4,0.2-0.7,0.4-1.4c3.7-0.4,7.1-0.3,10.5,0.5c2.5,0.6,4.5,2.1,5.4,4.7
		C207,104.1,206.8,109.8,205,115.5z M295.2,97.7c-1.9-11.3-11.3-18.2-23.4-17.3c-9.9,0.8-19.2,8.8-19,20.7c0.2,8.1,0,16.2,0,24.3h0
		c0,8.1,0.2,16.2,0,24.3c-0.4,12.5,11.7,23.1,26,20c10.8-2.4,16.7-10,16.8-21.2c0.1-15.3,0-30.7,0-46
		C295.6,100.9,295.5,99.3,295.2,97.7z M282.7,147.8c-0.1,3.5-0.7,6.9-4.6,8.7c-5.9,2.7-12-0.7-12.3-7.3c-0.2-4-0.1-8-0.1-12
		c0-4,0-8,0-12h0c0-7.9,0-15.7,0-23.6c0-3.4,1.4-6.1,4.5-7.6c3.2-1.5,6.3-1.2,9.2,0.9c2.8,2,3.2,4.9,3.2,7.9c0.1,8.2,0,16.5,0,24.7
		C282.7,134.4,282.8,141.1,282.7,147.8z M360.3,98.7c-0.5-2.3-1.8-3.8-3.9-4.7c-6.4-2.9-13.2,1.1-12.9,8.3
		c0.4,7.6,0.1,15.2,0.1,22.9h0c0,8-0.1,16,0,24c0.1,5,3.3,8.3,8.1,8.4c5.2,0.1,8.6-2.8,9.1-7.9c0.1-0.9,0-1.7,0-2.6
		c0-14.4,0-28.7,0-43.1C360.9,102.1,360.6,100.4,360.3,98.7z"/>
</g>
</svg>
