<?xml version="1.0" encoding="utf-8"?>
<!-- Generator: Adobe Illustrator 17.1.0, SVG Export Plug-In . SVG Version: 6.00 Build 0)  -->
<!DOCTYPE svg PUBLIC "-//W3C//DTD SVG 1.1//EN" "http://www.w3.org/Graphics/SVG/1.1/DTD/svg11.dtd">
<svg version="1.1" id="Layer_1" xmlns="http://www.w3.org/2000/svg" xmlns:xlink="http://www.w3.org/1999/xlink" x="0px" y="0px"
	 viewBox="0 0 250 250" enable-background="new 0 0 250 250" xml:space="preserve">
<g>
	<path fill="#EC008C" d="M30.7,219.9l0.5,3.4l0.7-3l5.1-17.9h2.8l4.9,17.9l0.7,3.1l0.5-3.4l4-17.5h3.4L47.2,228h-3.1l-5.3-18.7
		l-0.4-2l-0.4,2L32.5,228h-3.1l-6.2-25.6h3.4L30.7,219.9z"/>
	<path fill="#EC008C" d="M71.6,216.2H60.5v9.1h12.9v2.8H57.1v-25.6h16.1v2.8H60.5v8.2h11.1V216.2z"/>
	<path fill="#EC008C" d="M77.6,228v-25.6H86c2.8,0,4.9,0.6,6.3,1.7s2.1,2.8,2.1,5.1c0,1.2-0.3,2.3-1,3.2s-1.6,1.6-2.8,2.1
		c1.4,0.4,2.5,1.1,3.3,2.2s1.2,2.4,1.2,3.9c0,2.3-0.7,4.1-2.2,5.4s-3.6,2-6.3,2H77.6z M81,213.3h5.1c1.5,0,2.7-0.4,3.5-1.1
		c0.9-0.7,1.3-1.7,1.3-3c0-1.4-0.4-2.4-1.2-3.1c-0.8-0.6-2.1-1-3.7-1h-5V213.3z M81,216v9.2h5.6c1.6,0,2.8-0.4,3.7-1.2
		s1.4-1.9,1.4-3.4c0-3.1-1.7-4.6-5-4.6H81z"/>
	<path fill="#EC008C" d="M103.4,218v10H100v-25.6h9.4c2.8,0,5,0.7,6.6,2.1s2.4,3.3,2.4,5.7c0,2.5-0.8,4.4-2.3,5.7s-3.8,2-6.7,2
		H103.4z M103.4,215.2h6.1c1.8,0,3.2-0.4,4.1-1.3c1-0.9,1.4-2.1,1.4-3.7c0-1.5-0.5-2.7-1.4-3.7c-1-0.9-2.3-1.4-4-1.4h-6.3V215.2z"/>
	<path fill="#EC008C" d="M140.7,202.4v17.4c0,2.4-0.8,4.4-2.3,5.9s-3.5,2.4-6.1,2.6l-0.9,0c-2.8,0-5-0.8-6.7-2.3s-2.5-3.6-2.5-6.2
		v-17.4h3.3v17.3c0,1.9,0.5,3.3,1.5,4.3s2.5,1.5,4.4,1.5c1.9,0,3.4-0.5,4.4-1.5s1.5-2.5,1.5-4.3v-17.3H140.7z"/>
	<path fill="#EC008C" d="M155.4,217.6h-6V228H146v-25.6h8.5c2.9,0,5.1,0.7,6.7,2s2.3,3.2,2.3,5.7c0,1.6-0.4,3-1.3,4.2
		s-2.1,2.1-3.6,2.7l6,10.9v0.2H161L155.4,217.6z M149.4,214.9h5.2c1.7,0,3-0.4,4-1.3c1-0.9,1.5-2,1.5-3.5c0-1.6-0.5-2.8-1.4-3.6
		c-0.9-0.8-2.3-1.3-4.1-1.3h-5.2V214.9z"/>
	<path fill="#EC008C" d="M171.6,218v10h-3.4v-25.6h9.4c2.8,0,5,0.7,6.6,2.1s2.4,3.3,2.4,5.7c0,2.5-0.8,4.4-2.3,5.7s-3.8,2-6.7,2
		H171.6z M171.6,215.2h6.1c1.8,0,3.2-0.4,4.1-1.3c1-0.9,1.4-2.1,1.4-3.7c0-1.5-0.5-2.7-1.4-3.7c-1-0.9-2.3-1.4-4-1.4h-6.3V215.2z"/>
	<path fill="#EC008C" d="M194.3,225.2h12.1v2.8h-15.5v-25.6h3.4V225.2z"/>
	<path fill="#EC008C" d="M224.8,216.2h-11.1v9.1h12.9v2.8h-16.3v-25.6h16.1v2.8h-12.7v8.2h11.1V216.2z"/>
</g>
<g>
	<polygon fill="#622C80" points="169.2,184 213.8,157.7 213.8,50.6 169.2,23.9 	"/>
	<linearGradient id="SVGID_1_" gradientUnits="userSpaceOnUse" x1="191.4865" y1="183.9858" x2="191.4865" y2="23.8519">
		<stop  offset="0" style="stop-color:#000000"/>
		<stop  offset="3.484112e-002" style="stop-color:#444446"/>
		<stop  offset="9.840298e-002" style="stop-color:#6D6E70"/>
		<stop  offset="0.1676" style="stop-color:#8D8F91"/>
		<stop  offset="0.241" style="stop-color:#A9ABAE"/>
		<stop  offset="0.3195" style="stop-color:#C3C4C6"/>
		<stop  offset="0.4048" style="stop-color:#D8D9DA"/>
		<stop  offset="0.4997" style="stop-color:#E8E8E9"/>
		<stop  offset="0.6091" style="stop-color:#F3F4F4"/>
		<stop  offset="0.7464" style="stop-color:#FBFBFC"/>
		<stop  offset="1" style="stop-color:#FFFFFF"/>
	</linearGradient>
	<polygon display="none" opacity="0.3" fill="url(#SVGID_1_)" points="169.2,184 213.8,157.7 213.8,50.6 169.2,23.9 	"/>
	<polygon fill="#EC008C" points="213.8,157.7 125,103.8 80.8,130.6 80.8,184 125,156.7 169.2,184 	"/>
	<linearGradient id="SVGID_2_" gradientUnits="userSpaceOnUse" x1="80.788" y1="143.9084" x2="213.7947" y2="143.9084">
		<stop  offset="0" style="stop-color:#000000"/>
		<stop  offset="3.484112e-002" style="stop-color:#444446"/>
		<stop  offset="9.840298e-002" style="stop-color:#6D6E70"/>
		<stop  offset="0.1676" style="stop-color:#8D8F91"/>
		<stop  offset="0.241" style="stop-color:#A9ABAE"/>
		<stop  offset="0.3195" style="stop-color:#C3C4C6"/>
		<stop  offset="0.4048" style="stop-color:#D8D9DA"/>
		<stop  offset="0.4997" style="stop-color:#E8E8E9"/>
		<stop  offset="0.6091" style="stop-color:#F3F4F4"/>
		<stop  offset="0.7464" style="stop-color:#FBFBFC"/>
		<stop  offset="1" style="stop-color:#FFFFFF"/>
	</linearGradient>
	<polygon display="none" opacity="0.3" fill="url(#SVGID_2_)" points="213.8,157.7 125,103.8 80.8,130.6 80.8,184 125,156.7 
		169.2,184 	"/>
	<polygon fill="#622C80" points="80.8,184 36.2,157.7 36.2,50.6 80.8,23.9 	"/>
	<linearGradient id="SVGID_3_" gradientUnits="userSpaceOnUse" x1="58.4966" y1="183.9858" x2="58.4966" y2="23.8519">
		<stop  offset="0" style="stop-color:#000000"/>
		<stop  offset="3.484112e-002" style="stop-color:#444446"/>
		<stop  offset="9.840298e-002" style="stop-color:#6D6E70"/>
		<stop  offset="0.1676" style="stop-color:#8D8F91"/>
		<stop  offset="0.241" style="stop-color:#A9ABAE"/>
		<stop  offset="0.3195" style="stop-color:#C3C4C6"/>
		<stop  offset="0.4048" style="stop-color:#D8D9DA"/>
		<stop  offset="0.4997" style="stop-color:#E8E8E9"/>
		<stop  offset="0.6091" style="stop-color:#F3F4F4"/>
		<stop  offset="0.7464" style="stop-color:#FBFBFC"/>
		<stop  offset="1" style="stop-color:#FFFFFF"/>
	</linearGradient>
	<polygon display="none" opacity="0.3" fill="url(#SVGID_3_)" points="80.8,184 36.2,157.7 36.2,50.6 80.8,23.9 	"/>
</g>
</svg>
